Bold.ufo
<glyph name="numbersign" format="1">
  <advance width="667"/>
  <unicode hex="0023"/>
  <outline>
    <contour>
      <point x="75" y="412" type="line"/>
      <point x="75" y="533" type="line"/>
      <point x="632" y="533" type="line"/>
      <point x="632" y="412" type="line"/>
      <point x="478" y="412" type="line" smooth="yes"/>
      <point x="448" y="418" type="line" smooth="yes"/>
      <point x="244" y="418" type="line" smooth="yes"/>
      <point x="218" y="412" type="line" smooth="yes"/>
    </contour>
    <contour>
      <point x="35" y="172" type="line"/>
      <point x="35" y="293" type="line"/>
      <point x="176" y="293" type="line" smooth="yes"/>
      <point x="208" y="287" type="line" smooth="yes"/>
      <point x="438" y="287" type="line" smooth="yes"/>
      <point x="468" y="293" type="line" smooth="yes"/>
      <point x="592" y="293" type="line"/>
      <point x="592" y="172" type="line"/>
    </contour>
    <contour>
      <point x="474" y="700" type="line"/>
      <point x="605" y="700" type="line"/>
      <point x="435" y="0" type="line"/>
      <point x="304" y="0" type="line"/>
      <point x="358" y="224" type="line" smooth="yes"/>
      <point x="370" y="250" type="line" smooth="yes"/>
      <point x="420" y="456" type="line" smooth="yes"/>
      <point x="422" y="487" type="line" smooth="yes"/>
    </contour>
    <contour>
      <point x="232" y="700" type="line"/>
      <point x="364" y="700" type="line"/>
      <point x="312" y="488" type="line" smooth="yes"/>
      <point x="298" y="456" type="line" smooth="yes"/>
      <point x="248" y="252" type="line" smooth="yes"/>
      <point x="248" y="226" type="line" smooth="yes"/>
      <point x="194" y="0" type="line"/>
      <point x="62" y="0" type="line"/>
    </contour>
  </outline>
</glyph>
<glyph name="dollar" format="1">
  <advance width="621"/>
  <unicode hex="0024"/>
  <outline>
    <contour>
      <point x="262" y="818" type="line"/>
      <point x="386" y="818" type="line"/>
      <point x="380" y="637" type="line"/>
      <point x="268" y="637" type="line"/>
    </contour>
    <contour>
      <point x="268" y="62" type="line"/>
      <point x="380" y="62" type="line"/>
      <point x="386" y="-112" type="line"/>
      <point x="262" y="-112" type="line"/>
    </contour>
    <contour>
      <point x="449" y="489" type="line"/>
      <point x="419" y="547"/>
      <point x="378" y="586"/>
      <point x="326" y="586" type="curve" smooth="yes"/>
      <point x="271" y="586"/>
      <point x="248" y="558"/>
      <point x="248" y="522" type="curve" smooth="yes"/>
      <point x="248" y="463"/>
      <point x="323" y="446"/>
      <point x="408" y="414" type="curve" smooth="yes"/>
      <point x="503" y="380"/>
      <point x="586" y="316"/>
      <point x="586" y="196" type="curve" smooth="yes"/>
      <point x="586" y="64"/>
      <point x="482" y="-10"/>
      <point x="318" y="-10" type="curve" smooth="yes"/>
      <point x="190" y="-10"/>
      <point x="77" y="72"/>
      <point x="33" y="168" type="curve"/>
      <point x="152" y="251" type="line"/>
      <point x="200" y="167"/>
      <point x="248" y="125"/>
      <point x="322" y="125" type="curve" smooth="yes"/>
      <point x="381" y="125"/>
      <point x="408" y="149"/>
      <point x="408" y="194" type="curve" smooth="yes"/>
      <point x="408" y="250"/>
      <point x="345" y="270"/>
      <point x="263" y="302" type="curve" smooth="yes"/>
      <point x="193" y="328"/>
      <point x="74" y="385"/>
      <point x="74" y="521" type="curve" smooth="yes"/>
      <point x="74" y="623"/>
      <point x="176" y="710"/>
      <point x="321" y="710" type="curve" smooth="yes"/>
      <point x="465" y="710"/>
      <point x="534" y="638"/>
      <point x="576" y="562" type="curve"/>
    </contour>
  </outline>
</glyph>
<glyph name="quotesingle" format="1">
  <advance width="306"/>
  <unicode hex="0027"/>
  <outline>
    <contour>
      <point x="105" y="700" type="line"/>
      <point x="266" y="700" type="line"/>
      <point x="160" y="381" type="line"/>
      <point x="61" y="381" type="line"/>
    </contour>
  </outline>
</glyph>
<glyph name="plus" format="1">
  <advance width="674"/>
  <unicode hex="002B"/>
  <outline>
    <contour>
      <point x="65" y="196" type="line"/>
      <point x="65" y="342" type="line"/>
      <point x="610" y="342" type="line"/>
      <point x="610" y="196" type="line"/>
    </contour>
    <contour>
      <point x="258" y="540" type="line"/>
      <point x="416" y="540" type="line"/>
      <point x="416" y="-2" type="line"/>
      <point x="258" y="-2" type="line"/>
    </contour>
  </outline>
</glyph>
<glyph name="period" format="1">
  <advance width="322"/>
  <unicode hex="002E"/>
  <outline>
    <contour>
      <point x="67" y="68" type="curve" smooth="yes"/>
      <point x="67" y="118"/>
      <point x="106" y="160"/>
      <point x="161" y="160" type="curve" smooth="yes"/>
      <point x="216" y="160"/>
      <point x="256" y="118"/>
      <point x="256" y="68" type="curve" smooth="yes"/>
      <point x="256" y="18"/>
      <point x="216" y="-24"/>
      <point x="161" y="-24" type="curve" smooth="yes"/>
      <point x="106" y="-24"/>
      <point x="67" y="18"/>
    </contour>
  </outline>
</glyph>
<glyph name="five" format="1">
  <advance width="645"/>
  <unicode hex="0035"/>
  <outline>
    <contour>
      <point x="605" y="224" type="curve" smooth="yes"/>
      <point x="605" y="58"/>
      <point x="457" y="-13"/>
      <point x="322" y="-13" type="curve" smooth="yes"/>
      <point x="193" y="-13"/>
      <point x="107" y="29"/>
      <point x="42" y="78" type="curve"/>
      <point x="108" y="217" type="line"/>
      <point x="164" y="169"/>
      <point x="234" y="142"/>
      <point x="286" y="142" type="curve" smooth="yes"/>
      <point x="370" y="142"/>
      <point x="420" y="174"/>
      <point x="420" y="242" type="curve" smooth="yes"/>
      <point x="420" y="310"/>
      <point x="354" y="340"/>
      <point x="286" y="340" type="curve" smooth="yes"/>
      <point x="232" y="340"/>
      <point x="159" y="332"/>
      <point x="88" y="296" type="curve"/>
      <point x="206" y="380" type="line"/>
      <point x="258" y="436"/>
      <point x="320" y="453"/>
      <point x="392" y="453" type="curve" smooth="yes"/>
      <point x="502" y="453"/>
      <point x="605" y="370"/>
    </contour>
    <contour>
      <point x="310" y="553" type="line"/>
      <point x="252" y="380" type="line"/>
      <point x="88" y="296" type="line"/>
      <point x="186" y="700" type="line"/>
      <point x="591" y="700" type="line"/>
      <point x="591" y="553" type="line"/>
    </contour>
  </outline>
</glyph>
<glyph name="nine" format="1">
  <advance width="669"/>
  <unicode hex="0039"/>
  <outline>
    <contour>
      <point x="452" y="454" type="curve" smooth="yes"/>
      <point x="452" y="525"/>
      <point x="402" y="572"/>
      <point x="335" y="572" type="curve" smooth="yes"/>
      <point x="268" y="572"/>
      <point x="218" y="525"/>
      <point x="218" y="454" type="curve" smooth="yes"/>
      <point x="218" y="383"/>
      <point x="268" y="335"/>
      <point x="335" y="335" type="curve" smooth="yes"/>
      <point x="402" y="335"/>
      <point x="452" y="383"/>
    </contour>
    <contour>
      <point x="336" y="3" type="line"/>
      <point x="122" y="3" type="line"/>
      <point x="348" y="256" type="line"/>
      <point x="384" y="271" type="line"/>
      <point x="346" y="235"/>
      <point x="316" y="226"/>
      <point x="266" y="226" type="curve" smooth="yes"/>
      <point x="162" y="226"/>
      <point x="50" y="312"/>
      <point x="50" y="454" type="curve" smooth="yes"/>
      <point x="50" y="626"/>
      <point x="178" y="716"/>
      <point x="335" y="716" type="curve" smooth="yes"/>
      <point x="492" y="716"/>
      <point x="620" y="626"/>
      <point x="620" y="454" type="curve" smooth="yes"/>
      <point x="620" y="378"/>
      <point x="584" y="316"/>
      <point x="538" y="260" type="curve" smooth="yes"/>
    </contour>
  </outline>
</glyph>
<glyph name="colon" format="1">
  <advance width="322"/>
  <unicode hex="003A"/>
  <outline>
    <contour>
      <point x="67" y="68" type="curve" smooth="yes"/>
      <point x="67" y="118"/>
      <point x="106" y="160"/>
      <point x="161" y="160" type="curve" smooth="yes"/>
      <point x="216" y="160"/>
      <point x="256" y="118"/>
      <point x="256" y="68" type="curve" smooth="yes"/>
      <point x="256" y="18"/>
      <point x="216" y="-24"/>
      <point x="161" y="-24" type="curve" smooth="yes"/>
      <point x="106" y="-24"/>
      <point x="67" y="18"/>
    </contour>
    <contour>
      <point x="67" y="442" type="curve" smooth="yes"/>
      <point x="67" y="492"/>
      <point x="106" y="534"/>
      <point x="161" y="534" type="curve" smooth="yes"/>
      <point x="216" y="534"/>
      <point x="256" y="492"/>
      <point x="256" y="442" type="curve" smooth="yes"/>
      <point x="256" y="392"/>
      <point x="216" y="350"/>
      <point x="161" y="350" type="curve" smooth="yes"/>
      <point x="106" y="350"/>
      <point x="67" y="392"/>
    </contour>
  </outline>
</glyph>
<glyph name="J" format="1">
  <advance width="330"/>
  <unicode hex="004A"/>
  <outline>
    <contour>
      <point x="-72" y="-58" type="line"/>
      <point x="-52" y="-76"/>
      <point x="-21" y="-91"/>
      <point x="9" y="-91" type="curve" smooth="yes"/>
      <point x="39" y="-91"/>
      <point x="74" y="-70"/>
      <point x="74" y="-10" type="curve" smooth="yes"/>
      <point x="74" y="700" type="line"/>
      <point x="257" y="700" type="line"/>
      <point x="257" y="-54" type="line" smooth="yes"/>
      <point x="257" y="-188"/>
      <point x="151" y="-239"/>
      <point x="26" y="-239" type="curve" smooth="yes"/>
      <point x="-52" y="-239"/>
      <point x="-124" y="-208"/>
      <point x="-164" y="-182" type="curve"/>
    </contour>
  </outline>
</glyph>
<glyph name="L" format="1">
  <advance width="528"/>
  <unicode hex="004C"/>
  <outline>
    <contour>
      <point x="186" y="0" type="line"/>
      <point x="186" y="146" type="line"/>
      <point x="524" y="146" type="line"/>
      <point x="524" y="0" type="line"/>
    </contour>
    <contour>
      <point x="74" y="700" type="line"/>
      <point x="243" y="700" type="line"/>
      <point x="243" y="0" type="line"/>
      <point x="74" y="0" type="line"/>
    </contour>
  </outline>
</glyph>
<glyph name="W" format="1">
  <advance width="1065"/>
  <unicode hex="0057"/>
  <outline>
    <contour>
      <point x="373" y="159" type="line"/>
      <point x="307" y="-42" type="line"/>
      <point x="4" y="700" type="line"/>
      <point x="205" y="700" type="line"/>
    </contour>
    <contour>
      <point x="758" y="-42" type="line"/>
      <point x="692" y="159" type="line"/>
      <point x="860" y="700" type="line"/>
      <point x="1061" y="700" type="line"/>
    </contour>
    <contour>
      <point x="307" y="-42" type="line"/>
      <point x="284" y="177" type="line"/>
      <point x="532" y="735" type="line"/>
      <point x="780" y="177" type="line"/>
      <point x="758" y="-42" type="line"/>
      <point x="532" y="380" type="line"/>
    </contour>
  </outline>
</glyph>
<glyph name="X" format="1">
  <advance width="686"/>
  <unicode hex="0058"/>
  <outline>
    <contour>
      <point x="458" y="700" type="line"/>
      <point x="668" y="700" type="line"/>
      <point x="448" y="359" type="line"/>
      <point x="682" y="0" type="line"/>
      <point x="473" y="0" type="line"/>
      <point x="345" y="232" type="line"/>
      <point x="213" y="0" type="line"/>
      <point x="4" y="0" type="line"/>
      <point x="244" y="359" type="line"/>
      <point x="28" y="700" type="line"/>
      <point x="238" y="700" type="line"/>
      <point x="346" y="498" type="line"/>
    </contour>
  </outline>
</glyph>
<glyph name="bracketright" format="1">
  <advance width="362"/>
  <unicode hex="005D"/>
  <outline>
    <contour>
      <point x="121" y="-88" type="line"/>
      <point x="121" y="648" type="line"/>
      <point x="20" y="648" type="line"/>
      <point x="20" y="780" type="line"/>
      <point x="272" y="780" type="line"/>
      <point x="272" y="-220" type="line"/>
      <point x="20" y="-220" type="line"/>
      <point x="20" y="-88" type="line"/>
    </contour>
  </outline>
</glyph>
<glyph name="j" format="1">
  <advance width="271"/>
  <unicode hex="006A"/>
  <outline>
    <contour>
      <point x="46" y="632" type="curve" smooth="yes"/>
      <point x="46" y="680"/>
      <point x="85" y="714"/>
      <point x="134" y="714" type="curve" smooth="yes"/>
      <point x="183" y="714"/>
      <point x="222" y="680"/>
      <point x="222" y="632" type="curve" smooth="yes"/>
      <point x="222" y="584"/>
      <point x="183" y="550"/>
      <point x="134" y="550" type="curve" smooth="yes"/>
      <point x="85" y="550"/>
      <point x="46" y="584"/>
    </contour>
    <contour>
      <point x="-34" y="-77" type="line"/>
      <point x="-20" y="-95"/>
      <point x="-5" y="-102"/>
      <point x="13" y="-102" type="curve" smooth="yes"/>
      <point x="43" y="-102"/>
      <point x="61" y="-81"/>
      <point x="61" y="-34" type="curve" smooth="yes"/>
      <point x="61" y="460" type="line"/>
      <point x="207" y="460" type="line"/>
      <point x="207" y="-72" type="line" smooth="yes"/>
      <point x="207" y="-174"/>
      <point x="149" y="-239"/>
      <point x="34" y="-239" type="curve" smooth="yes"/>
      <point x="-34" y="-239"/>
      <point x="-72" y="-208"/>
      <point x="-94" y="-188" type="curve"/>
    </contour>
  </outline>
</glyph>
<glyph name="m" format="1">
  <advance width="820"/>
  <unicode hex="006D"/>
  <outline>
    <contour>
      <point x="331" y="280" type="line" smooth="yes"/>
      <point x="331" y="334"/>
      <point x="315" y="364"/>
      <point x="272" y="364" type="curve" smooth="yes"/>
      <point x="230" y="364"/>
      <point x="205" y="334"/>
      <point x="205" y="280" type="curve"/>
      <point x="179" y="274" type="line"/>
      <point x="179" y="383"/>
      <point x="230" y="470"/>
      <point x="338" y="470" type="curve" smooth="yes"/>
      <point x="446" y="470"/>
      <point x="483" y="414"/>
      <point x="483" y="302" type="curve" smooth="yes"/>
      <point x="483" y="0" type="line"/>
      <point x="331" y="0" type="line"/>
    </contour>
    <contour>
      <point x="205" y="460" type="line"/>
      <point x="205" y="0" type="line"/>
      <point x="60" y="0" type="line"/>
      <point x="60" y="460" type="line"/>
    </contour>
    <contour>
      <point x="762" y="296" type="curve" smooth="yes"/>
      <point x="762" y="0" type="line"/>
      <point x="610" y="0" type="line"/>
      <point x="610" y="280" type="line" smooth="yes"/>
      <point x="610" y="334"/>
      <point x="593" y="364"/>
      <point x="550" y="364" type="curve" smooth="yes"/>
      <point x="508" y="364"/>
      <point x="483" y="334"/>
      <point x="483" y="280" type="curve"/>
      <point x="432" y="274" type="line"/>
      <point x="432" y="383"/>
      <point x="508" y="470"/>
      <point x="616" y="470" type="curve" smooth="yes"/>
      <point x="724" y="470"/>
      <point x="762" y="408"/>
    </contour>
  </outline>
</glyph>
<glyph name="t" format="1">
  <advance width="318"/>
  <unicode hex="0074"/>
  <outline>
    <contour>
      <point x="5" y="460" type="line"/>
      <point x="313" y="460" type="line"/>
      <point x="313" y="335" type="line"/>
      <point x="5" y="335" type="line"/>
    </contour>
    <contour>
      <point x="86" y="620" type="line"/>
      <point x="232" y="620" type="line"/>
      <point x="232" y="0" type="line"/>
      <point x="86" y="0" type="line"/>
    </contour>
  </outline>
</glyph>
<glyph name="w" format="1">
  <advance width="761"/>
  <unicode hex="0077"/>
  <outline>
    <contour>
      <point x="610" y="460" type="line"/>
      <point x="768" y="460" type="line"/>
      <point x="532" y="-28" type="line"/>
      <point x="495" y="176" type="line"/>
    </contour>
    <contour>
      <point x="348" y="300" type="line"/>
      <point x="378" y="495" type="line"/>
      <point x="545" y="164" type="line"/>
      <point x="532" y="-28" type="line"/>
    </contour>
    <contour>
      <point x="378" y="495" type="line"/>
      <point x="408" y="300" type="line"/>
      <point x="230" y="-28" type="line"/>
      <point x="216" y="164" type="line"/>
    </contour>
    <contour>
      <point x="-8" y="460" type="line"/>
      <point x="152" y="460" type="line"/>
      <point x="266" y="176" type="line"/>
      <point x="230" y="-28" type="line"/>
    </contour>
  </outline>
</glyph>
<glyph name="x" format="1">
  <advance width="532"/>
  <unicode hex="0078"/>
  <outline>
    <contour>
      <point x="354" y="460" type="line"/>
      <point x="522" y="460" type="line"/>
      <point x="346" y="236" type="line"/>
      <point x="532" y="0" type="line"/>
      <point x="364" y="0" type="line"/>
      <point x="269" y="134" type="line"/>
      <point x="174" y="0" type="line"/>
      <point x="0" y="0" type="line"/>
      <point x="189" y="236" type="line"/>
      <point x="10" y="460" type="line"/>
      <point x="184" y="460" type="line"/>
      <point x="269" y="340" type="line"/>
    </contour>
  </outline>
</glyph>
<glyph name="asciitilde" format="1">
  <advance width="575"/>
  <unicode hex="007E"/>
  <outline>
    <contour>
      <point x="156" y="164" type="curve"/>
      <point x="37" y="168" type="line"/>
      <point x="35" y="175"/>
      <point x="34" y="183"/>
      <point x="34" y="192" type="curve" smooth="yes"/>
      <point x="34" y="226"/>
      <point x="42" y="258"/>
      <point x="66" y="288" type="curve" smooth="yes"/>
      <point x="93" y="322"/>
      <point x="127" y="346"/>
      <point x="194" y="346" type="curve" smooth="yes"/>
      <point x="240" y="346"/>
      <point x="271" y="329"/>
      <point x="319" y="297" type="curve" smooth="yes"/>
      <point x="350" y="276"/>
      <point x="372" y="262"/>
      <point x="390" y="262" type="curve" smooth="yes"/>
      <point x="412" y="262"/>
      <point x="422" y="280"/>
      <point x="422" y="302" type="curve" smooth="yes"/>
      <point x="422" y="313"/>
      <point x="420" y="326"/>
      <point x="416" y="336" type="curve"/>
      <point x="537" y="330" type="line"/>
      <point x="539" y="322"/>
      <point x="541" y="312"/>
      <point x="541" y="302" type="curve" smooth="yes"/>
      <point x="541" y="270"/>
      <point x="536" y="236"/>
      <point x="512" y="206" type="curve" smooth="yes"/>
      <point x="486" y="172"/>
      <point x="455" y="153"/>
      <point x="400" y="153" type="curve" smooth="yes"/>
      <point x="360" y="153"/>
      <point x="326" y="171"/>
      <point x="276" y="203" type="curve" smooth="yes"/>
      <point x="245" y="224"/>
      <point x="218" y="238"/>
      <point x="193" y="238" type="curve" smooth="yes"/>
      <point x="161" y="238"/>
      <point x="150" y="214"/>
      <point x="150" y="192" type="curve" smooth="yes"/>
      <point x="150" y="178"/>
      <point x="153" y="172"/>
    </contour>
  </outline>
</glyph>
<glyph name="exclamdown" format="1">
  <advance width="343"/>
  <unicode hex="00A1"/>
  <outline>
    <contour>
      <point x="266" y="-230" type="line"/>
      <point x="78" y="-230" type="line"/>
      <point x="110" y="240" type="line"/>
      <point x="233" y="240" type="line"/>
    </contour>
    <contour>
      <point x="266" y="408" type="curve" smooth="yes"/>
      <point x="266" y="358"/>
      <point x="227" y="322"/>
      <point x="172" y="322" type="curve" smooth="yes"/>
      <point x="117" y="322"/>
      <point x="78" y="358"/>
      <point x="78" y="408" type="curve" smooth="yes"/>
      <point x="78" y="458"/>
      <point x="117" y="495"/>
      <point x="172" y="495" type="curve" smooth="yes"/>
      <point x="227" y="495"/>
      <point x="266" y="458"/>
    </contour>
  </outline>
</glyph>
<glyph name="sterling" format="1">
  <advance width="611"/>
  <unicode hex="00A3"/>
  <outline>
    <contour>
      <point x="67" y="370" type="line"/>
      <point x="446" y="370" type="line"/>
      <point x="446" y="270" type="line"/>
      <point x="67" y="270" type="line"/>
    </contour>
    <contour>
      <point x="434" y="466" type="line"/>
      <point x="430" y="520"/>
      <point x="408" y="576"/>
      <point x="334" y="576" type="curve" smooth="yes"/>
      <point x="286" y="576"/>
      <point x="244" y="552"/>
      <point x="244" y="495" type="curve" smooth="yes"/>
      <point x="244" y="410"/>
      <point x="336" y="382"/>
      <point x="336" y="270" type="curve" smooth="yes"/>
      <point x="336" y="164"/>
      <point x="214" y="70"/>
      <point x="140" y="50" type="curve"/>
      <point x="192" y="140" type="line"/>
      <point x="539" y="140" type="line"/>
      <point x="539" y="0" type="line"/>
      <point x="52" y="0" type="line"/>
      <point x="150" y="102"/>
      <point x="189" y="186"/>
      <point x="189" y="286" type="curve" smooth="yes"/>
      <point x="189" y="380"/>
      <point x="85" y="404"/>
      <point x="85" y="521" type="curve" smooth="yes"/>
      <point x="85" y="640"/>
      <point x="196" y="710"/>
      <point x="328" y="710" type="curve" smooth="yes"/>
      <point x="480" y="710"/>
      <point x="566" y="604"/>
      <point x="571" y="518" type="curve"/>
    </contour>
  </outline>
</glyph>
<glyph name="section" format="1">
  <advance width="577"/>
  <unicode hex="00A7"/>
  <outline>
    <contour>
      <point x="400" y="549" type="line"/>
      <point x="372" y="579"/>
      <point x="324" y="598"/>
      <point x="294" y="598" type="curve" smooth="yes"/>
      <point x="260" y="598"/>
      <point x="244" y="587"/>
      <point x="244" y="569" type="curve" smooth="yes"/>
      <point x="244" y="543"/>
      <point x="290" y="535"/>
      <point x="344" y="519" type="curve" smooth="yes"/>
      <point x="420" y="497"/>
      <point x="480" y="452"/>
      <point x="480" y="378" type="curve" smooth="yes"/>
      <point x="480" y="274"/>
      <point x="376" y="229"/>
      <point x="268" y="229" type="curve"/>
      <point x="268" y="270" type="line"/>
      <point x="306" y="276"/>
      <point x="343" y="304"/>
      <point x="343" y="344" type="curve" smooth="yes"/>
      <point x="343" y="398"/>
      <point x="274" y="416"/>
      <point x="222" y="436" type="curve" smooth="yes"/>
      <point x="164" y="458"/>
      <point x="99" y="494"/>
      <point x="99" y="578" type="curve" smooth="yes"/>
      <point x="99" y="674"/>
      <point x="195" y="724"/>
      <point x="285" y="724" type="curve" smooth="yes"/>
      <point x="365" y="724"/>
      <point x="444" y="689"/>
      <point x="472" y="648" type="curve"/>
    </contour>
    <contour>
      <point x="128" y="174" type="line"/>
      <point x="178" y="124"/>
      <point x="240" y="102"/>
      <point x="278" y="102" type="curve" smooth="yes"/>
      <point x="316" y="102"/>
      <point x="333" y="115"/>
      <point x="333" y="136" type="curve" smooth="yes"/>
      <point x="333" y="167"/>
      <point x="291" y="178"/>
      <point x="236" y="194" type="curve" smooth="yes"/>
      <point x="160" y="214"/>
      <point x="84" y="257"/>
      <point x="84" y="334" type="curve" smooth="yes"/>
      <point x="84" y="429"/>
      <point x="190" y="480"/>
      <point x="304" y="480" type="curve"/>
      <point x="304" y="442" type="line"/>
      <point x="263" y="428"/>
      <point x="227" y="410"/>
      <point x="227" y="369" type="curve" smooth="yes"/>
      <point x="227" y="309"/>
      <point x="307" y="299"/>
      <point x="358" y="278" type="curve" smooth="yes"/>
      <point x="423" y="251"/>
      <point x="485" y="210"/>
      <point x="485" y="130" type="curve" smooth="yes"/>
      <point x="485" y="24"/>
      <point x="385" y="-22"/>
      <point x="286" y="-22" type="curve" smooth="yes"/>
      <point x="176" y="-22"/>
      <point x="101" y="20"/>
      <point x="56" y="76" type="curve"/>
    </contour>
  </outline>
</glyph>
<glyph name="copyright" format="1">
  <advance width="800"/>
  <unicode hex="00A9"/>
  <outline>
    <contour>
      <point x="289" y="350" type="curve" smooth="yes"/>
      <point x="289" y="272"/>
      <point x="345" y="227"/>
      <point x="415" y="227" type="curve" smooth="yes"/>
      <point x="474" y="227"/>
      <point x="513" y="252"/>
      <point x="540" y="282" type="curve"/>
      <point x="540" y="172" type="line"/>
      <point x="506" y="146"/>
      <point x="469" y="130"/>
      <point x="408" y="130" type="curve" smooth="yes"/>
      <point x="273" y="130"/>
      <point x="178" y="220"/>
      <point x="178" y="350" type="curve" smooth="yes"/>
      <point x="178" y="480"/>
      <point x="273" y="570"/>
      <point x="408" y="570" type="curve" smooth="yes"/>
      <point x="469" y="570"/>
      <point x="506" y="554"/>
      <point x="540" y="528" type="curve"/>
      <point x="540" y="418" type="line"/>
      <point x="513" y="448"/>
      <point x="474" y="473"/>
      <point x="415" y="473" type="curve" smooth="yes"/>
      <point x="345" y="473"/>
      <point x="289" y="428"/>
    </contour>
    <contour>
      <point x="95" y="350" type="curve" smooth="yes"/>
      <point x="95" y="172"/>
      <point x="227" y="40"/>
      <point x="400" y="40" type="curve" smooth="yes"/>
      <point x="573" y="40"/>
      <point x="705" y="172"/>
      <point x="705" y="350" type="curve" smooth="yes"/>
      <point x="705" y="528"/>
      <point x="573" y="660"/>
      <point x="400" y="660" type="curve" smooth="yes"/>
      <point x="227" y="660"/>
      <point x="95" y="528"/>
    </contour>
    <contour>
      <point x="40" y="350" type="curve" smooth="yes"/>
      <point x="40" y="559"/>
      <point x="196" y="710"/>
      <point x="400" y="710" type="curve" smooth="yes"/>
      <point x="604" y="710"/>
      <point x="760" y="559"/>
      <point x="760" y="350" type="curve" smooth="yes"/>
      <point x="760" y="141"/>
      <point x="604" y="-10"/>
      <point x="400" y="-10" type="curve" smooth="yes"/>
      <point x="196" y="-10"/>
      <point x="40" y="141"/>
    </contour>
  </outline>
</glyph>
<glyph name="ordfeminine" format="1">
  <advance width="270"/>
  <unicode hex="00AA"/>
  <outline>
    <contour>
      <point x="94" y="530" type="curve" smooth="yes"/>
      <point x="94" y="514"/>
      <point x="105" y="504"/>
      <point x="127" y="504" type="curve" smooth="yes"/>
      <point x="153" y="504"/>
      <point x="178" y="517"/>
      <point x="178" y="553" type="curve"/>
      <point x="186" y="525" type="line"/>
      <point x="186" y="481"/>
      <point x="149" y="455"/>
      <point x="101" y="455" type="curve" smooth="yes"/>
      <point x="53" y="455"/>
      <point x="18" y="482"/>
      <point x="18" y="528" type="curve" smooth="yes"/>
      <point x="18" y="574"/>
      <point x="61" y="603"/>
      <point x="117" y="603" type="curve" smooth="yes"/>
      <point x="151" y="603"/>
      <point x="184" y="590"/>
      <point x="194" y="580" type="curve"/>
      <point x="194" y="542" type="line"/>
      <point x="177" y="555"/>
      <point x="160" y="562"/>
      <point x="134" y="562" type="curve" smooth="yes"/>
      <point x="110" y="562"/>
      <point x="94" y="548"/>
    </contour>
    <contour>
      <point x="64" y="625" type="curve"/>
      <point x="38" y="679" type="line"/>
      <point x="64" y="691"/>
      <point x="102" y="705"/>
      <point x="144" y="705" type="curve" smooth="yes"/>
      <point x="206" y="705"/>
      <point x="250" y="678"/>
      <point x="250" y="630" type="curve" smooth="yes"/>
      <point x="250" y="460" type="line"/>
      <point x="178" y="460" type="line"/>
      <point x="178" y="610" type="line" smooth="yes"/>
      <point x="178" y="630"/>
      <point x="163" y="645"/>
      <point x="138" y="645" type="curve" smooth="yes"/>
      <point x="105" y="645"/>
      <point x="75" y="632"/>
    </contour>
  </outline>
</glyph>
<glyph name="guillemotleft" format="1">
  <advance width="541"/>
  <unicode hex="00AB"/>
  <outline>
    <contour>
      <point x="129" y="235" type="line"/>
      <point x="28" y="255" type="line"/>
      <point x="205" y="509" type="line"/>
      <point x="299" y="445" type="line"/>
    </contour>
    <contour>
      <point x="28" y="255" type="line"/>
      <point x="129" y="285" type="line"/>
      <point x="299" y="65" type="line"/>
      <point x="205" y="1" type="line"/>
    </contour>
    <contour>
      <point x="332" y="235" type="line"/>
      <point x="231" y="255" type="line"/>
      <point x="409" y="509" type="line"/>
      <point x="502" y="445" type="line"/>
    </contour>
    <contour>
      <point x="231" y="255" type="line"/>
      <point x="332" y="285" type="line"/>
      <point x="502" y="65" type="line"/>
      <point x="409" y="1" type="line"/>
    </contour>
  </outline>
</glyph>
<glyph name="logicalnot" format="1">
  <advance width="650"/>
  <unicode hex="00AC"/>
  <outline>
    <contour>
      <point x="65" y="272" type="line"/>
      <point x="65" y="403" type="line"/>
      <point x="586" y="403" type="line"/>
      <point x="586" y="272" type="line"/>
    </contour>
    <contour>
      <point x="480" y="375" type="line"/>
      <point x="586" y="375" type="line"/>
      <point x="586" y="175" type="line"/>
      <point x="480" y="175" type="line"/>
    </contour>
  </outline>
</glyph>
<glyph name="onequarter" format="1">
  <advance width="822"/>
  <unicode hex="00BC"/>
  <outline>
    <contour>
      <point x="630" y="700" type="line"/>
      <point x="726" y="700" type="line"/>
      <point x="206" y="0" type="line"/>
      <point x="110" y="0" type="line"/>
    </contour>
    <contour>
      <point x="24" y="572" type="line"/>
      <point x="24" y="661" type="line"/>
      <point x="226" y="702" type="line"/>
      <point x="226" y="274" type="line"/>
      <point x="128" y="274" type="line"/>
      <point x="128" y="598" type="line"/>
    </contour>
    <contour>
      <point x="407" y="74" type="line"/>
      <point x="490" y="148" type="line"/>
      <point x="676" y="148" type="line" smooth="yes"/>
      <point x="686" y="161" type="line" smooth="yes"/>
      <point x="792" y="161" type="line"/>
      <point x="792" y="74" type="line"/>
    </contour>
    <contour>
      <point x="510" y="104" type="line"/>
      <point x="407" y="74" type="line"/>
      <point x="651" y="420" type="line"/>
      <point x="726" y="420" type="line"/>
      <point x="726" y="0" type="line"/>
      <point x="621" y="0" type="line"/>
      <point x="621" y="96" type="line" smooth="yes"/>
      <point x="632" y="102" type="line" smooth="yes"/>
      <point x="632" y="274" type="line"/>
    </contour>
  </outline>
</glyph>
<glyph name="Atilde" format="1">
  <advance width="735"/>
  <unicode hex="00C3"/>
  <outline>
    <contour>
      <point x="184" y="135" type="line"/>
      <point x="196" y="264" type="line"/>
      <point x="544" y="264" type="line"/>
      <point x="554" y="135" type="line"/>
    </contour>
    <contour>
      <point x="368" y="442" type="line"/>
      <point x="270" y="217" type="line"/>
      <point x="277" y="179" type="line"/>
      <point x="190" y="0" type="line"/>
      <point x="-2" y="0" type="line"/>
      <point x="368" y="744" type="line"/>
      <point x="736" y="0" type="line"/>
      <point x="544" y="0" type="line"/>
      <point x="460" y="172" type="line"/>
      <point x="466" y="216" type="line"/>
    </contour>
    <contour>
      <point x="172" y="862" type="line"/>
      <point x="182" y="911"/>
      <point x="227" y="957"/>
      <point x="291" y="957" type="curve" smooth="yes"/>
      <point x="357" y="957"/>
      <point x="372" y="905"/>
      <point x="428" y="905" type="curve" smooth="yes"/>
      <point x="454" y="905"/>
      <point x="472" y="926"/>
      <point x="492" y="958" type="curve"/>
      <point x="564" y="884" type="line"/>
      <point x="548" y="847"/>
      <point x="492" y="798"/>
      <point x="430" y="798" type="curve" smooth="yes"/>
      <point x="375" y="798"/>
      <point x="340" y="852"/>
      <point x="290" y="852" type="curve" smooth="yes"/>
      <point x="252" y="852"/>
      <point x="243" y="815"/>
      <point x="243" y="800" type="curve"/>
    </contour>
  </outline>
</glyph>
<glyph name="Adieresis" format="1">
  <advance width="735"/>
  <unicode hex="00C4"/>
  <outline>
    <contour>
      <point x="184" y="135" type="line"/>
      <point x="196" y="264" type="line"/>
      <point x="544" y="264" type="line"/>
      <point x="554" y="135" type="line"/>
    </contour>
    <contour>
      <point x="368" y="442" type="line"/>
      <point x="270" y="217" type="line"/>
      <point x="277" y="179" type="line"/>
      <point x="190" y="0" type="line"/>
      <point x="-2" y="0" type="line"/>
      <point x="368" y="744" type="line"/>
      <point x="736" y="0" type="line"/>
      <point x="544" y="0" type="line"/>
      <point x="460" y="172" type="line"/>
      <point x="466" y="216" type="line"/>
    </contour>
    <contour>
      <point x="422" y="836" type="curve" smooth="yes"/>
      <point x="422" y="884"/>
      <point x="461" y="918"/>
      <point x="510" y="918" type="curve" smooth="yes"/>
      <point x="559" y="918"/>
      <point x="598" y="884"/>
      <point x="598" y="836" type="curve" smooth="yes"/>
      <point x="598" y="788"/>
      <point x="559" y="754"/>
      <point x="510" y="754" type="curve" smooth="yes"/>
      <point x="461" y="754"/>
      <point x="422" y="788"/>
    </contour>
    <contour>
      <point x="138" y="836" type="curve" smooth="yes"/>
      <point x="138" y="884"/>
      <point x="177" y="918"/>
      <point x="226" y="918" type="curve" smooth="yes"/>
      <point x="275" y="918"/>
      <point x="314" y="884"/>
      <point x="314" y="836" type="curve" smooth="yes"/>
      <point x="314" y="788"/>
      <point x="275" y="754"/>
      <point x="226" y="754" type="curve" smooth="yes"/>
      <point x="177" y="754"/>
      <point x="138" y="788"/>
    </contour>
  </outline>
</glyph>
<glyph name="Aring" format="1">
  <advance width="735"/>
  <unicode hex="00C5"/>
  <outline>
    <contour>
      <point x="184" y="135" type="line"/>
      <point x="196" y="264" type="line"/>
      <point x="544" y="264" type="line"/>
      <point x="554" y="135" type="line"/>
    </contour>
    <contour>
      <point x="368" y="442" type="line"/>
      <point x="270" y="217" type="line"/>
      <point x="277" y="179" type="line"/>
      <point x="190" y="0" type="line"/>
      <point x="-2" y="0" type="line"/>
      <point x="368" y="744" type="line"/>
      <point x="736" y="0" type="line"/>
      <point x="544" y="0" type="line"/>
      <point x="460" y="172" type="line"/>
      <point x="466" y="216" type="line"/>
    </contour>
    <contour>
      <point x="242" y="800" type="curve" smooth="yes"/>
      <point x="242" y="869"/>
      <point x="297" y="916"/>
      <point x="367" y="916" type="curve" smooth="yes"/>
      <point x="437" y="916"/>
      <point x="492" y="869"/>
      <point x="492" y="800" type="curve" smooth="yes"/>
      <point x="492" y="731"/>
      <point x="437" y="685"/>
      <point x="367" y="685" type="curve" smooth="yes"/>
      <point x="297" y="685"/>
      <point x="242" y="731"/>
    </contour>
    <contour>
      <point x="321" y="800" type="curve" smooth="yes"/>
      <point x="321" y="770"/>
      <point x="342" y="753"/>
      <point x="367" y="753" type="curve" smooth="yes"/>
      <point x="392" y="753"/>
      <point x="414" y="770"/>
      <point x="414" y="800" type="curve" smooth="yes"/>
      <point x="414" y="830"/>
      <point x="392" y="848"/>
      <point x="367" y="848" type="curve" smooth="yes"/>
      <point x="342" y="848"/>
      <point x="321" y="830"/>
    </contour>
  </outline>
</glyph>
<glyph name="AE" format="1">
  <advance width="1085"/>
  <unicode hex="00C6"/>
  <outline>
    <contour>
      <point x="270" y="150" type="line"/>
      <point x="276" y="306" type="line"/>
      <point x="576" y="306" type="line"/>
      <point x="576" y="150" type="line"/>
    </contour>
    <contour>
      <point x="438" y="700" type="line"/>
      <point x="601" y="660" type="line"/>
      <point x="228" y="0" type="line"/>
      <point x="14" y="0" type="line"/>
    </contour>
    <contour>
      <point x="630" y="0" type="line"/>
      <point x="630" y="140" type="line"/>
      <point x="1015" y="140" type="line"/>
      <point x="1015" y="0" type="line"/>
    </contour>
    <contour>
      <point x="638" y="560" type="line"/>
      <point x="438" y="700" type="line"/>
      <point x="1015" y="700" type="line"/>
      <point x="1015" y="560" type="line"/>
    </contour>
    <contour>
      <point x="630" y="300" type="line"/>
      <point x="630" y="436" type="line"/>
      <point x="995" y="436" type="line"/>
      <point x="995" y="300" type="line"/>
    </contour>
    <contour>
      <point x="550" y="700" type="line"/>
      <point x="732" y="700" type="line"/>
      <point x="732" y="0" type="line"/>
      <point x="550" y="0" type="line"/>
    </contour>
  </outline>
</glyph>
<glyph name="Edieresis" format="1">
  <advance width="603"/>
  <unicode hex="00CB"/>
  <outline>
    <contour>
      <point x="186" y="0" type="line"/>
      <point x="186" y="140" type="line"/>
      <point x="540" y="140" type="line"/>
      <point x="540" y="0" type="line"/>
    </contour>
    <contour>
      <point x="186" y="560" type="line"/>
      <point x="186" y="700" type="line"/>
      <point x="540" y="700" type="line"/>
      <point x="540" y="560" type="line"/>
    </contour>
    <contour>
      <point x="186" y="300" type="line"/>
      <point x="186" y="436" type="line"/>
      <point x="520" y="436" type="line"/>
      <point x="520" y="300" type="line"/>
    </contour>
    <contour>
      <point x="74" y="700" type="line"/>
      <point x="237" y="700" type="line"/>
      <point x="237" y="0" type="line"/>
      <point x="74" y="0" type="line"/>
    </contour>
    <contour>
      <point x="341" y="858" type="curve" smooth="yes"/>
      <point x="341" y="906"/>
      <point x="380" y="940"/>
      <point x="429" y="940" type="curve" smooth="yes"/>
      <point x="478" y="940"/>
      <point x="517" y="906"/>
      <point x="517" y="858" type="curve" smooth="yes"/>
      <point x="517" y="810"/>
      <point x="478" y="776"/>
      <point x="429" y="776" type="curve" smooth="yes"/>
      <point x="380" y="776"/>
      <point x="341" y="810"/>
    </contour>
    <contour>
      <point x="97" y="858" type="curve" smooth="yes"/>
      <point x="97" y="906"/>
      <point x="136" y="940"/>
      <point x="185" y="940" type="curve" smooth="yes"/>
      <point x="234" y="940"/>
      <point x="273" y="906"/>
      <point x="273" y="858" type="curve" smooth="yes"/>
      <point x="273" y="810"/>
      <point x="234" y="776"/>
      <point x="185" y="776" type="curve" smooth="yes"/>
      <point x="136" y="776"/>
      <point x="97" y="810"/>
    </contour>
  </outline>
</glyph>
<glyph name="Icircumflex" format="1">
  <advance width="320"/>
  <unicode hex="00CE"/>
  <outline>
    <contour>
      <point x="74" y="700" type="line"/>
      <point x="246" y="700" type="line"/>
      <point x="246" y="0" type="line"/>
      <point x="74" y="0" type="line"/>
    </contour>
    <contour>
      <point x="153" y="884" type="line"/>
      <point x="43" y="789" type="line"/>
      <point x="-7" y="829" type="line"/>
      <point x="153" y="969" type="line"/>
      <point x="313" y="829" type="line"/>
      <point x="263" y="789" type="line"/>
    </contour>
  </outline>
</glyph>
<glyph name="Ntilde" format="1">
  <advance width="793"/>
  <unicode hex="00D1"/>
  <outline>
    <contour>
      <point x="78" y="524" type="line"/>
      <point x="74" y="735" type="line"/>
      <point x="715" y="176" type="line"/>
      <point x="720" y="-35" type="line"/>
    </contour>
    <contour>
      <point x="557" y="700" type="line"/>
      <point x="720" y="700" type="line"/>
      <point x="720" y="-35" type="line"/>
      <point x="557" y="150" type="line"/>
    </contour>
    <contour>
      <point x="74" y="735" type="line"/>
      <point x="237" y="550" type="line"/>
      <point x="237" y="0" type="line"/>
      <point x="74" y="0" type="line"/>
    </contour>
    <contour>
      <point x="225" y="840" type="line"/>
      <point x="235" y="889"/>
      <point x="284" y="922"/>
      <point x="329" y="922" type="curve" smooth="yes"/>
      <point x="394" y="922"/>
      <point x="399" y="874"/>
      <point x="453" y="874" type="curve" smooth="yes"/>
      <point x="472" y="874"/>
      <point x="489" y="890"/>
      <point x="509" y="922" type="curve"/>
      <point x="555" y="880" type="line"/>
      <point x="539" y="843"/>
      <point x="499" y="806"/>
      <point x="449" y="806" type="curve" smooth="yes"/>
      <point x="394" y="806"/>
      <point x="373" y="854"/>
      <point x="328" y="854" type="curve" smooth="yes"/>
      <point x="287" y="854"/>
      <point x="278" y="817"/>
      <point x="278" y="802" type="curve"/>
    </contour>
  </outline>
</glyph>
<glyph name="Odieresis" format="1">
  <advance width="821"/>
  <unicode hex="00D6"/>
  <outline>
    <contour>
      <point x="213" y="350" type="curve" smooth="yes"/>
      <point x="213" y="226"/>
      <point x="292" y="140"/>
      <point x="410" y="140" type="curve" smooth="yes"/>
      <point x="528" y="140"/>
      <point x="608" y="226"/>
      <point x="608" y="350" type="curve" smooth="yes"/>
      <point x="608" y="474"/>
      <point x="532" y="560"/>
      <point x="410" y="560" type="curve" smooth="yes"/>
      <point x="292" y="560"/>
      <point x="213" y="474"/>
    </contour>
    <contour>
      <point x="34" y="350" type="curve" smooth="yes"/>
      <point x="34" y="566"/>
      <point x="196" y="716"/>
      <point x="410" y="716" type="curve" smooth="yes"/>
      <point x="626" y="716"/>
      <point x="788" y="566"/>
      <point x="788" y="350" type="curve" smooth="yes"/>
      <point x="788" y="134"/>
      <point x="630" y="-22"/>
      <point x="410" y="-22" type="curve" smooth="yes"/>
      <point x="190" y="-22"/>
      <point x="34" y="134"/>
    </contour>
    <contour>
      <point x="444" y="858" type="curve" smooth="yes"/>
      <point x="444" y="906"/>
      <point x="483" y="940"/>
      <point x="532" y="940" type="curve" smooth="yes"/>
      <point x="581" y="940"/>
      <point x="620" y="906"/>
      <point x="620" y="858" type="curve" smooth="yes"/>
      <point x="620" y="810"/>
      <point x="581" y="776"/>
      <point x="532" y="776" type="curve" smooth="yes"/>
      <point x="483" y="776"/>
      <point x="444" y="810"/>
    </contour>
    <contour>
      <point x="200" y="858" type="curve" smooth="yes"/>
      <point x="200" y="906"/>
      <point x="239" y="940"/>
      <point x="288" y="940" type="curve" smooth="yes"/>
      <point x="337" y="940"/>
      <point x="376" y="906"/>
      <point x="376" y="858" type="curve" smooth="yes"/>
      <point x="376" y="810"/>
      <point x="337" y="776"/>
      <point x="288" y="776" type="curve" smooth="yes"/>
      <point x="239" y="776"/>
      <point x="200" y="810"/>
    </contour>
  </outline>
</glyph>
<glyph name="Ugrave" format="1">
  <advance width="701"/>
  <unicode hex="00D9"/>
  <outline>
    <contour>
      <point x="68" y="700" type="line"/>
      <point x="238" y="700" type="line"/>
      <point x="238" y="242" type="line" smooth="yes"/>
      <point x="238" y="171"/>
      <point x="275" y="123"/>
      <point x="350" y="123" type="curve" smooth="yes"/>
      <point x="425" y="123"/>
      <point x="463" y="171"/>
      <point x="463" y="242" type="curve" smooth="yes"/>
      <point x="463" y="700" type="line"/>
      <point x="632" y="700" type="line"/>
      <point x="632" y="230" type="line" smooth="yes"/>
      <point x="632" y="54"/>
      <point x="508" y="-29"/>
      <point x="350" y="-29" type="curve" smooth="yes"/>
      <point x="192" y="-29"/>
      <point x="68" y="54"/>
      <point x="68" y="230" type="curve" smooth="yes"/>
    </contour>
    <contour>
      <point x="190" y="926" type="line"/>
      <point x="305" y="979" type="line"/>
      <point x="455" y="819" type="line"/>
      <point x="370" y="776" type="line"/>
    </contour>
  </outline>
</glyph>
<glyph name="Ucircumflex" format="1">
  <advance width="701"/>
  <unicode hex="00DB"/>
  <outline>
    <contour>
      <point x="68" y="700" type="line"/>
      <point x="238" y="700" type="line"/>
      <point x="238" y="242" type="line" smooth="yes"/>
      <point x="238" y="171"/>
      <point x="275" y="123"/>
      <point x="350" y="123" type="curve" smooth="yes"/>
      <point x="425" y="123"/>
      <point x="463" y="171"/>
      <point x="463" y="242" type="curve" smooth="yes"/>
      <point x="463" y="700" type="line"/>
      <point x="632" y="700" type="line"/>
      <point x="632" y="230" type="line" smooth="yes"/>
      <point x="632" y="54"/>
      <point x="508" y="-29"/>
      <point x="350" y="-29" type="curve" smooth="yes"/>
      <point x="192" y="-29"/>
      <point x="68" y="54"/>
      <point x="68" y="230" type="curve" smooth="yes"/>
    </contour>
    <contour>
      <point x="350" y="862" type="line"/>
      <point x="260" y="776" type="line"/>
      <point x="153" y="848" type="line"/>
      <point x="350" y="988" type="line"/>
      <point x="548" y="848" type="line"/>
      <point x="442" y="776" type="line"/>
    </contour>
  </outline>
</glyph>
<glyph name="Udieresis" format="1">
  <advance width="701"/>
  <unicode hex="00DC"/>
  <outline>
    <contour>
      <point x="68" y="700" type="line"/>
      <point x="238" y="700" type="line"/>
      <point x="238" y="242" type="line" smooth="yes"/>
      <point x="238" y="171"/>
      <point x="275" y="123"/>
      <point x="350" y="123" type="curve" smooth="yes"/>
      <point x="425" y="123"/>
      <point x="463" y="171"/>
      <point x="463" y="242" type="curve" smooth="yes"/>
      <point x="463" y="700" type="line"/>
      <point x="632" y="700" type="line"/>
      <point x="632" y="230" type="line" smooth="yes"/>
      <point x="632" y="54"/>
      <point x="508" y="-29"/>
      <point x="350" y="-29" type="curve" smooth="yes"/>
      <point x="192" y="-29"/>
      <point x="68" y="54"/>
      <point x="68" y="230" type="curve" smooth="yes"/>
    </contour>
    <contour>
      <point x="404" y="858" type="curve" smooth="yes"/>
      <point x="404" y="906"/>
      <point x="443" y="940"/>
      <point x="492" y="940" type="curve" smooth="yes"/>
      <point x="541" y="940"/>
      <point x="580" y="906"/>
      <point x="580" y="858" type="curve" smooth="yes"/>
      <point x="580" y="810"/>
      <point x="541" y="776"/>
      <point x="492" y="776" type="curve" smooth="yes"/>
      <point x="443" y="776"/>
      <point x="404" y="810"/>
    </contour>
    <contour>
      <point x="120" y="858" type="curve" smooth="yes"/>
      <point x="120" y="906"/>
      <point x="159" y="940"/>
      <point x="208" y="940" type="curve" smooth="yes"/>
      <point x="257" y="940"/>
      <point x="296" y="906"/>
      <point x="296" y="858" type="curve" smooth="yes"/>
      <point x="296" y="810"/>
      <point x="257" y="776"/>
      <point x="208" y="776" type="curve" smooth="yes"/>
      <point x="159" y="776"/>
      <point x="120" y="810"/>
    </contour>
  </outline>
</glyph>
<glyph name="germandbls" format="1">
  <advance width="591"/>
  <unicode hex="00DF"/>
  <outline>
    <contour>
      <point x="55" y="606" type="line"/>
      <point x="200" y="587" type="line"/>
      <point x="200" y="0" type="line"/>
      <point x="55" y="0" type="line"/>
    </contour>
    <contour>
      <point x="268" y="412" type="curve"/>
      <point x="268" y="505" type="line"/>
      <point x="353" y="505"/>
      <point x="376" y="540"/>
      <point x="376" y="584" type="curve" smooth="yes"/>
      <point x="376" y="631"/>
      <point x="345" y="658"/>
      <point x="286" y="658" type="curve" smooth="yes"/>
      <point x="232" y="658"/>
      <point x="200" y="632"/>
      <point x="200" y="587" type="curve"/>
      <point x="55" y="606" type="line"/>
      <point x="55" y="728"/>
      <point x="162" y="796"/>
      <point x="286" y="796" type="curve" smooth="yes"/>
      <point x="440" y="796"/>
      <point x="522" y="715"/>
      <point x="522" y="606" type="curve" smooth="yes"/>
      <point x="522" y="487"/>
      <point x="436" y="412"/>
    </contour>
    <contour>
      <point x="282" y="128" type="line"/>
      <point x="362" y="128"/>
      <point x="416" y="179"/>
      <point x="416" y="254" type="curve" smooth="yes"/>
      <point x="416" y="315"/>
      <point x="378" y="368"/>
      <point x="268" y="368" type="curve"/>
      <point x="268" y="472" type="line"/>
      <point x="436" y="472"/>
      <point x="568" y="377"/>
      <point x="568" y="225" type="curve" smooth="yes"/>
      <point x="568" y="73"/>
      <point x="454" y="-10"/>
      <point x="282" y="-10" type="curve"/>
    </contour>
  </outline>
</glyph>
<glyph name="atilde" format="1">
  <advance width="544"/>
  <unicode hex="00E3"/>
  <outline>
    <contour>
      <point x="176" y="138" type="curve" smooth="yes"/>
      <point x="176" y="104"/>
      <point x="202" y="89"/>
      <point x="242" y="89" type="curve" smooth="yes"/>
      <point x="297" y="89"/>
      <point x="345" y="112"/>
      <point x="345" y="186" type="curve"/>
      <point x="361" y="130" type="line"/>
      <point x="361" y="41"/>
      <point x="286" y="-10"/>
      <point x="191" y="-10" type="curve" smooth="yes"/>
      <point x="89" y="-10"/>
      <point x="24" y="41"/>
      <point x="24" y="128" type="curve" smooth="yes"/>
      <point x="24" y="222"/>
      <point x="105" y="279"/>
      <point x="223" y="279" type="curve" smooth="yes"/>
      <point x="292" y="279"/>
      <point x="358" y="252"/>
      <point x="378" y="230" type="curve"/>
      <point x="378" y="158" type="line"/>
      <point x="344" y="184"/>
      <point x="310" y="197"/>
      <point x="258" y="197" type="curve" smooth="yes"/>
      <point x="206" y="197"/>
      <point x="176" y="174"/>
    </contour>
    <contour>
      <point x="118" y="318" type="curve"/>
      <point x="66" y="420" type="line"/>
      <point x="119" y="445"/>
      <point x="193" y="473"/>
      <point x="276" y="473" type="curve" smooth="yes"/>
      <point x="400" y="473"/>
      <point x="490" y="420"/>
      <point x="490" y="324" type="curve" smooth="yes"/>
      <point x="490" y="0" type="line"/>
      <point x="345" y="0" type="line"/>
      <point x="345" y="294" type="line" smooth="yes"/>
      <point x="345" y="333"/>
      <point x="314" y="358"/>
      <point x="264" y="358" type="curve" smooth="yes"/>
      <point x="198" y="358"/>
      <point x="140" y="331"/>
    </contour>
    <contour>
      <point x="80" y="599" type="line"/>
      <point x="90" y="648"/>
      <point x="136" y="694"/>
      <point x="200" y="694" type="curve" smooth="yes"/>
      <point x="266" y="694"/>
      <point x="280" y="642"/>
      <point x="336" y="642" type="curve" smooth="yes"/>
      <point x="362" y="642"/>
      <point x="382" y="662"/>
      <point x="402" y="694" type="curve"/>
      <point x="472" y="620" type="line"/>
      <point x="456" y="583"/>
      <point x="400" y="534"/>
      <point x="338" y="534" type="curve" smooth="yes"/>
      <point x="283" y="534"/>
      <point x="248" y="588"/>
      <point x="198" y="588" type="curve" smooth="yes"/>
      <point x="160" y="588"/>
      <point x="152" y="552"/>
      <point x="152" y="537" type="curve"/>
    </contour>
  </outline>
</glyph>
<glyph name="idieresis" format="1">
  <advance width="276"/>
  <unicode hex="00EF"/>
  <outline>
    <contour>
      <point x="64" y="460" type="line"/>
      <point x="211" y="460" type="line"/>
      <point x="211" y="0" type="line"/>
      <point x="64" y="0" type="line"/>
    </contour>
    <contour>
      <point x="171" y="612" type="curve" smooth="yes"/>
      <point x="171" y="660"/>
      <point x="210" y="694"/>
      <point x="259" y="694" type="curve" smooth="yes"/>
      <point x="308" y="694"/>
      <point x="347" y="660"/>
      <point x="347" y="612" type="curve" smooth="yes"/>
      <point x="347" y="564"/>
      <point x="308" y="530"/>
      <point x="259" y="530" type="curve" smooth="yes"/>
      <point x="210" y="530"/>
      <point x="171" y="564"/>
    </contour>
    <contour>
      <point x="-73" y="612" type="curve" smooth="yes"/>
      <point x="-73" y="660"/>
      <point x="-34" y="694"/>
      <point x="15" y="694" type="curve" smooth="yes"/>
      <point x="64" y="694"/>
      <point x="103" y="660"/>
      <point x="103" y="612" type="curve" smooth="yes"/>
      <point x="103" y="564"/>
      <point x="64" y="530"/>
      <point x="15" y="530" type="curve" smooth="yes"/>
      <point x="-34" y="530"/>
      <point x="-73" y="564"/>
    </contour>
  </outline>
</glyph>
<glyph name="otilde" format="1">
  <advance width="589"/>
  <unicode hex="00F5"/>
  <outline>
    <contour>
      <point x="32" y="230" type="curve" smooth="yes"/>
      <point x="32" y="376"/>
      <point x="145" y="470"/>
      <point x="295" y="470" type="curve" smooth="yes"/>
      <point x="445" y="470"/>
      <point x="558" y="376"/>
      <point x="558" y="230" type="curve" smooth="yes"/>
      <point x="558" y="84"/>
      <point x="445" y="-10"/>
      <point x="295" y="-10" type="curve" smooth="yes"/>
      <point x="145" y="-10"/>
      <point x="32" y="84"/>
    </contour>
    <contour>
      <point x="188" y="230" type="curve" smooth="yes"/>
      <point x="188" y="159"/>
      <point x="236" y="115"/>
      <point x="295" y="115" type="curve" smooth="yes"/>
      <point x="354" y="115"/>
      <point x="402" y="159"/>
      <point x="402" y="230" type="curve" smooth="yes"/>
      <point x="402" y="301"/>
      <point x="354" y="346"/>
      <point x="295" y="346" type="curve" smooth="yes"/>
      <point x="236" y="346"/>
      <point x="188" y="301"/>
    </contour>
    <contour>
      <point x="98" y="596" type="line"/>
      <point x="108" y="645"/>
      <point x="154" y="691"/>
      <point x="218" y="691" type="curve" smooth="yes"/>
      <point x="284" y="691"/>
      <point x="299" y="639"/>
      <point x="355" y="639" type="curve" smooth="yes"/>
      <point x="381" y="639"/>
      <point x="400" y="660"/>
      <point x="420" y="692" type="curve"/>
      <point x="491" y="618" type="line"/>
      <point x="475" y="581"/>
      <point x="419" y="532"/>
      <point x="357" y="532" type="curve" smooth="yes"/>
      <point x="302" y="532"/>
      <point x="268" y="586"/>
      <point x="218" y="586" type="curve" smooth="yes"/>
      <point x="180" y="586"/>
      <point x="170" y="549"/>
      <point x="170" y="534" type="curve"/>
    </contour>
  </outline>
</glyph>
<glyph name="odieresis" format="1">
  <advance width="589"/>
  <unicode hex="00F6"/>
  <outline>
    <contour>
      <point x="32" y="230" type="curve" smooth="yes"/>
      <point x="32" y="376"/>
      <point x="145" y="470"/>
      <point x="295" y="470" type="curve" smooth="yes"/>
      <point x="445" y="470"/>
      <point x="558" y="376"/>
      <point x="558" y="230" type="curve" smooth="yes"/>
      <point x="558" y="84"/>
      <point x="445" y="-10"/>
      <point x="295" y="-10" type="curve" smooth="yes"/>
      <point x="145" y="-10"/>
      <point x="32" y="84"/>
    </contour>
    <contour>
      <point x="188" y="230" type="curve" smooth="yes"/>
      <point x="188" y="159"/>
      <point x="236" y="115"/>
      <point x="295" y="115" type="curve" smooth="yes"/>
      <point x="354" y="115"/>
      <point x="402" y="159"/>
      <point x="402" y="230" type="curve" smooth="yes"/>
      <point x="402" y="301"/>
      <point x="354" y="346"/>
      <point x="295" y="346" type="curve" smooth="yes"/>
      <point x="236" y="346"/>
      <point x="188" y="301"/>
    </contour>
    <contour>
      <point x="329" y="612" type="curve" smooth="yes"/>
      <point x="329" y="660"/>
      <point x="368" y="694"/>
      <point x="417" y="694" type="curve" smooth="yes"/>
      <point x="466" y="694"/>
      <point x="505" y="660"/>
      <point x="505" y="612" type="curve" smooth="yes"/>
      <point x="505" y="564"/>
      <point x="466" y="530"/>
      <point x="417" y="530" type="curve" smooth="yes"/>
      <point x="368" y="530"/>
      <point x="329" y="564"/>
    </contour>
    <contour>
      <point x="85" y="612" type="curve" smooth="yes"/>
      <point x="85" y="660"/>
      <point x="124" y="694"/>
      <point x="173" y="694" type="curve" smooth="yes"/>
      <point x="222" y="694"/>
      <point x="261" y="660"/>
      <point x="261" y="612" type="curve" smooth="yes"/>
      <point x="261" y="564"/>
      <point x="222" y="530"/>
      <point x="173" y="530" type="curve" smooth="yes"/>
      <point x="124" y="530"/>
      <point x="85" y="564"/>
    </contour>
  </outline>
</glyph>
<glyph name="divide" format="1">
  <advance width="639"/>
  <unicode hex="00F7"/>
  <outline>
    <contour>
      <point x="225" y="553" type="curve" smooth="yes"/>
      <point x="225" y="603"/>
      <point x="265" y="646"/>
      <point x="320" y="646" type="curve" smooth="yes"/>
      <point x="375" y="646"/>
      <point x="414" y="603"/>
      <point x="414" y="553" type="curve" smooth="yes"/>
      <point x="414" y="503"/>
      <point x="375" y="460"/>
      <point x="320" y="460" type="curve" smooth="yes"/>
      <point x="265" y="460"/>
      <point x="225" y="503"/>
    </contour>
    <contour>
      <point x="225" y="98" type="curve" smooth="yes"/>
      <point x="225" y="148"/>
      <point x="265" y="190"/>
      <point x="320" y="190" type="curve" smooth="yes"/>
      <point x="375" y="190"/>
      <point x="414" y="148"/>
      <point x="414" y="98" type="curve" smooth="yes"/>
      <point x="414" y="48"/>
      <point x="375" y="6"/>
      <point x="320" y="6" type="curve" smooth="yes"/>
      <point x="265" y="6"/>
      <point x="225" y="48"/>
    </contour>
    <contour>
      <point x="26" y="260" type="line"/>
      <point x="26" y="396" type="line"/>
      <point x="613" y="396" type="line"/>
      <point x="613" y="260" type="line"/>
    </contour>
  </outline>
</glyph>
<glyph name="oslash" format="1">
  <advance width="546"/>
  <unicode hex="00F8"/>
  <outline>
    <contour>
      <point x="32" y="230" type="curve" smooth="yes"/>
      <point x="32" y="382"/>
      <point x="147" y="470"/>
      <point x="295" y="470" type="curve" smooth="yes"/>
      <point x="443" y="470"/>
      <point x="558" y="382"/>
      <point x="558" y="230" type="curve" smooth="yes"/>
      <point x="558" y="78"/>
      <point x="443" y="-10"/>
      <point x="295" y="-10" type="curve" smooth="yes"/>
      <point x="147" y="-10"/>
      <point x="32" y="78"/>
    </contour>
    <contour>
      <point x="176" y="230" type="curve" smooth="yes"/>
      <point x="176" y="153"/>
      <point x="230" y="108"/>
      <point x="295" y="108" type="curve" smooth="yes"/>
      <point x="360" y="108"/>
      <point x="414" y="153"/>
      <point x="414" y="230" type="curve" smooth="yes"/>
      <point x="414" y="301"/>
      <point x="360" y="352"/>
      <point x="295" y="352" type="curve" smooth="yes"/>
      <point x="230" y="352"/>
      <point x="176" y="301"/>
    </contour>
    <contour>
      <point x="456" y="506" type="line"/>
      <point x="513" y="474" type="line"/>
      <point x="123" y="-50" type="line"/>
      <point x="66" y="-18" type="line"/>
    </contour>
  </outline>
</glyph>
<glyph name="uacute" format="1">
  <advance width="575"/>
  <unicode hex="00FA"/>
  <outline>
    <contour>
      <point x="364" y="0" type="line"/>
      <point x="364" y="460" type="line"/>
      <point x="516" y="460" type="line"/>
      <point x="516" y="0" type="line"/>
    </contour>
    <contour>
      <point x="218" y="180" type="line" smooth="yes"/>
      <point x="218" y="126"/>
      <point x="234" y="96"/>
      <point x="284" y="96" type="curve" smooth="yes"/>
      <point x="332" y="96"/>
      <point x="364" y="126"/>
      <point x="364" y="180" type="curve"/>
      <point x="394" y="186" type="line"/>
      <point x="394" y="77"/>
      <point x="338" y="-10"/>
      <point x="224" y="-10" type="curve" smooth="yes"/>
      <point x="110" y="-10"/>
      <point x="60" y="52"/>
      <point x="60" y="164" type="curve" smooth="yes"/>
      <point x="60" y="460" type="line"/>
      <point x="218" y="460" type="line"/>
    </contour>
    <contour>
      <point x="432" y="688" type="line"/>
      <point x="252" y="538" type="line"/>
      <point x="167" y="580" type="line"/>
      <point x="317" y="740" type="line"/>
    </contour>
  </outline>
</glyph>
<glyph name="udieresis" format="1">
  <advance width="575"/>
  <unicode hex="00FC"/>
  <outline>
    <contour>
      <point x="364" y="0" type="line"/>
      <point x="364" y="460" type="line"/>
      <point x="516" y="460" type="line"/>
      <point x="516" y="0" type="line"/>
    </contour>
    <contour>
      <point x="218" y="180" type="line" smooth="yes"/>
      <point x="218" y="126"/>
      <point x="234" y="96"/>
      <point x="284" y="96" type="curve" smooth="yes"/>
      <point x="332" y="96"/>
      <point x="364" y="126"/>
      <point x="364" y="180" type="curve"/>
      <point x="390" y="186" type="line"/>
      <point x="390" y="77"/>
      <point x="338" y="-10"/>
      <point x="224" y="-10" type="curve" smooth="yes"/>
      <point x="110" y="-10"/>
      <point x="60" y="52"/>
      <point x="60" y="164" type="curve" smooth="yes"/>
      <point x="60" y="460" type="line"/>
      <point x="218" y="460" type="line"/>
    </contour>
    <contour>
      <point x="322" y="612" type="curve" smooth="yes"/>
      <point x="322" y="660"/>
      <point x="361" y="694"/>
      <point x="410" y="694" type="curve" smooth="yes"/>
      <point x="459" y="694"/>
      <point x="498" y="660"/>
      <point x="498" y="612" type="curve" smooth="yes"/>
      <point x="498" y="564"/>
      <point x="459" y="530"/>
      <point x="410" y="530" type="curve" smooth="yes"/>
      <point x="361" y="530"/>
      <point x="322" y="564"/>
    </contour>
    <contour>
      <point x="78" y="612" type="curve" smooth="yes"/>
      <point x="78" y="660"/>
      <point x="117" y="694"/>
      <point x="166" y="694" type="curve" smooth="yes"/>
      <point x="215" y="694"/>
      <point x="254" y="660"/>
      <point x="254" y="612" type="curve" smooth="yes"/>
      <point x="254" y="564"/>
      <point x="215" y="530"/>
      <point x="166" y="530" type="curve" smooth="yes"/>
      <point x="117" y="530"/>
      <point x="78" y="564"/>
    </contour>
  </outline>
</glyph>
<glyph name="thorn" format="1">
  <advance width="612"/>
  <unicode hex="00FE"/>
  <outline>
    <contour>
      <point x="204" y="-220" type="line"/>
      <point x="59" y="-220" type="line"/>
      <point x="59" y="780" type="line"/>
      <point x="204" y="780" type="line"/>
    </contour>
    <contour>
      <point x="580" y="230" type="curve" smooth="yes"/>
      <point x="580" y="75"/>
      <point x="475" y="-10"/>
      <point x="361" y="-10" type="curve" smooth="yes"/>
      <point x="246" y="-10"/>
      <point x="162" y="81"/>
      <point x="162" y="230" type="curve" smooth="yes"/>
      <point x="162" y="379"/>
      <point x="246" y="470"/>
      <point x="361" y="470" type="curve" smooth="yes"/>
      <point x="475" y="470"/>
      <point x="580" y="385"/>
    </contour>
    <contour>
      <point x="428" y="230" type="curve" smooth="yes"/>
      <point x="428" y="305"/>
      <point x="376" y="352"/>
      <point x="314" y="352" type="curve" smooth="yes"/>
      <point x="261" y="352"/>
      <point x="204" y="308"/>
      <point x="204" y="230" type="curve" smooth="yes"/>
      <point x="204" y="152"/>
      <point x="261" y="108"/>
      <point x="314" y="108" type="curve" smooth="yes"/>
      <point x="376" y="108"/>
      <point x="428" y="155"/>
    </contour>
  </outline>
</glyph>
<glyph name="ydieresis" format="1">
  <advance width="521"/>
  <unicode hex="00FF"/>
  <outline>
    <contour>
      <point x="530" y="460" type="line"/>
      <point x="230" y="-220" type="line"/>
      <point x="78" y="-220" type="line"/>
      <point x="190" y="37" type="line"/>
      <point x="-10" y="460" type="line"/>
      <point x="158" y="460" type="line"/>
      <point x="306" y="90" type="line"/>
      <point x="228" y="92" type="line"/>
      <point x="375" y="460" type="line"/>
    </contour>
    <contour>
      <point x="294" y="612" type="curve" smooth="yes"/>
      <point x="294" y="660"/>
      <point x="333" y="694"/>
      <point x="382" y="694" type="curve" smooth="yes"/>
      <point x="431" y="694"/>
      <point x="470" y="660"/>
      <point x="470" y="612" type="curve" smooth="yes"/>
      <point x="470" y="564"/>
      <point x="431" y="530"/>
      <point x="382" y="530" type="curve" smooth="yes"/>
      <point x="333" y="530"/>
      <point x="294" y="564"/>
    </contour>
    <contour>
      <point x="50" y="612" type="curve" smooth="yes"/>
      <point x="50" y="660"/>
      <point x="89" y="694"/>
      <point x="138" y="694" type="curve" smooth="yes"/>
      <point x="187" y="694"/>
      <point x="226" y="660"/>
      <point x="226" y="612" type="curve" smooth="yes"/>
      <point x="226" y="564"/>
      <point x="187" y="530"/>
      <point x="138" y="530" type="curve" smooth="yes"/>
      <point x="89" y="530"/>
      <point x="50" y="564"/>
    </contour>
  </outline>
</glyph>
<glyph name="Aogonek" format="1">
  <advance width="735"/>
  <unicode hex="0104"/>
  <outline>
    <contour>
      <point x="184" y="135" type="line"/>
      <point x="196" y="264" type="line"/>
      <point x="544" y="264" type="line"/>
      <point x="554" y="135" type="line"/>
    </contour>
    <contour>
      <point x="368" y="442" type="line"/>
      <point x="270" y="217" type="line"/>
      <point x="277" y="179" type="line"/>
      <point x="190" y="0" type="line"/>
      <point x="-2" y="0" type="line"/>
      <point x="368" y="744" type="line"/>
      <point x="736" y="0" type="line"/>
      <point x="544" y="0" type="line"/>
      <point x="460" y="172" type="line"/>
      <point x="466" y="216" type="line"/>
    </contour>
    <contour>
      <point x="704" y="-103" type="curve"/>
      <point x="736" y="-172" type="line"/>
      <point x="721" y="-192"/>
      <point x="692" y="-212"/>
      <point x="636" y="-212" type="curve" smooth="yes"/>
      <point x="571" y="-212"/>
      <point x="520" y="-178"/>
      <point x="520" y="-112" type="curve"/>
      <point x="618" y="-86" type="line"/>
      <point x="618" y="-111"/>
      <point x="630" y="-123"/>
      <point x="654" y="-123" type="curve" smooth="yes"/>
      <point x="674" y="-123"/>
      <point x="690" y="-116"/>
    </contour>
    <contour>
      <point x="618" y="-86" type="curve"/>
      <point x="520" y="-112" type="line"/>
      <point x="520" y="-46"/>
      <point x="588" y="-3"/>
      <point x="658" y="33" type="curve"/>
      <point x="698" y="8" type="line"/>
      <point x="646" y="-20"/>
      <point x="618" y="-56"/>
    </contour>
  </outline>
</glyph>
<glyph name="ebreve" format="1">
  <advance width="573"/>
  <unicode hex="0115"/>
  <outline>
    <contour>
      <point x="96" y="198" type="line"/>
      <point x="96" y="282" type="line"/>
      <point x="522" y="282" type="line"/>
      <point x="538" y="198" type="line"/>
    </contour>
    <contour>
      <point x="380" y="244" type="line" smooth="yes"/>
      <point x="380" y="324"/>
      <point x="353" y="369"/>
      <point x="288" y="369" type="curve" smooth="yes"/>
      <point x="227" y="369"/>
      <point x="187" y="328"/>
      <point x="187" y="254" type="curve"/>
      <point x="185" y="230" type="line"/>
      <point x="185" y="136"/>
      <point x="232" y="100"/>
      <point x="291" y="100" type="curve" smooth="yes"/>
      <point x="345" y="100"/>
      <point x="383" y="120"/>
      <point x="405" y="158" type="curve"/>
      <point x="541" y="126" type="line"/>
      <point x="495" y="44"/>
      <point x="426" y="-10"/>
      <point x="294" y="-10" type="curve" smooth="yes"/>
      <point x="126" y="-10"/>
      <point x="32" y="91"/>
      <point x="32" y="230" type="curve" smooth="yes"/>
      <point x="32" y="247"/>
      <point x="33" y="263"/>
      <point x="36" y="279" type="curve" smooth="yes"/>
      <point x="55" y="392"/>
      <point x="141" y="470"/>
      <point x="291" y="470" type="curve" smooth="yes"/>
      <point x="452" y="470"/>
      <point x="540" y="382"/>
      <point x="540" y="237" type="curve" smooth="yes"/>
      <point x="540" y="229"/>
      <point x="540" y="214"/>
      <point x="538" y="198" type="curve"/>
      <point x="380" y="218" type="line"/>
    </contour>
    <contour>
      <point x="127" y="677" type="curve"/>
      <point x="226" y="677" type="line"/>
      <point x="226" y="641"/>
      <point x="252" y="618"/>
      <point x="291" y="618" type="curve" smooth="yes"/>
      <point x="330" y="618"/>
      <point x="356" y="641"/>
      <point x="356" y="677" type="curve"/>
      <point x="456" y="677" type="line"/>
      <point x="456" y="595"/>
      <point x="396" y="530"/>
      <point x="291" y="530" type="curve" smooth="yes"/>
      <point x="186" y="530"/>
      <point x="127" y="595"/>
    </contour>
  </outline>
</glyph>
<glyph name="Edotaccent" format="1">
  <advance width="603"/>
  <unicode hex="0116"/>
  <outline>
    <contour>
      <point x="186" y="0" type="line"/>
      <point x="186" y="140" type="line"/>
      <point x="540" y="140" type="line"/>
      <point x="540" y="0" type="line"/>
    </contour>
    <contour>
      <point x="186" y="560" type="line"/>
      <point x="186" y="700" type="line"/>
      <point x="540" y="700" type="line"/>
      <point x="540" y="560" type="line"/>
    </contour>
    <contour>
      <point x="186" y="300" type="line"/>
      <point x="186" y="436" type="line"/>
      <point x="520" y="436" type="line"/>
      <point x="520" y="300" type="line"/>
    </contour>
    <contour>
      <point x="74" y="700" type="line"/>
      <point x="237" y="700" type="line"/>
      <point x="237" y="0" type="line"/>
      <point x="74" y="0" type="line"/>
    </contour>
    <contour>
      <point x="219" y="858" type="curve" smooth="yes"/>
      <point x="219" y="906"/>
      <point x="258" y="940"/>
      <point x="307" y="940" type="curve" smooth="yes"/>
      <point x="356" y="940"/>
      <point x="395" y="906"/>
      <point x="395" y="858" type="curve" smooth="yes"/>
      <point x="395" y="810"/>
      <point x="356" y="776"/>
      <point x="307" y="776" type="curve" smooth="yes"/>
      <point x="258" y="776"/>
      <point x="219" y="810"/>
    </contour>
  </outline>
</glyph>
<glyph name="edotaccent" format="1">
  <advance width="563"/>
  <unicode hex="0117"/>
  <outline>
    <contour>
      <point x="96" y="198" type="line"/>
      <point x="96" y="287" type="line"/>
      <point x="507" y="287" type="line"/>
      <point x="523" y="198" type="line"/>
    </contour>
    <contour>
      <point x="390" y="244" type="line" smooth="yes"/>
      <point x="390" y="318"/>
      <point x="358" y="359"/>
      <point x="288" y="359" type="curve" smooth="yes"/>
      <point x="222" y="359"/>
      <point x="177" y="322"/>
      <point x="177" y="254" type="curve"/>
      <point x="175" y="230" type="line"/>
      <point x="175" y="146"/>
      <point x="232" y="105"/>
      <point x="301" y="105" type="curve" smooth="yes"/>
      <point x="345" y="105"/>
      <point x="373" y="121"/>
      <point x="390" y="158" type="curve"/>
      <point x="516" y="116" type="line"/>
      <point x="480" y="44"/>
      <point x="416" y="-10"/>
      <point x="294" y="-10" type="curve" smooth="yes"/>
      <point x="146" y="-10"/>
      <point x="37" y="91"/>
      <point x="37" y="230" type="curve" smooth="yes"/>
      <point x="37" y="247"/>
      <point x="39" y="265"/>
      <point x="42" y="281" type="curve" smooth="yes"/>
      <point x="61" y="394"/>
      <point x="161" y="470"/>
      <point x="291" y="470" type="curve" smooth="yes"/>
      <point x="422" y="470"/>
      <point x="525" y="382"/>
      <point x="525" y="237" type="curve" smooth="yes"/>
      <point x="525" y="229"/>
      <point x="525" y="214"/>
      <point x="523" y="198" type="curve"/>
      <point x="390" y="218" type="line"/>
    </contour>
    <contour>
      <point x="203" y="612" type="curve" smooth="yes"/>
      <point x="203" y="660"/>
      <point x="242" y="694"/>
      <point x="291" y="694" type="curve" smooth="yes"/>
      <point x="340" y="694"/>
      <point x="379" y="660"/>
      <point x="379" y="612" type="curve" smooth="yes"/>
      <point x="379" y="564"/>
      <point x="340" y="530"/>
      <point x="291" y="530" type="curve" smooth="yes"/>
      <point x="242" y="530"/>
      <point x="203" y="564"/>
    </contour>
  </outline>
</glyph>
<glyph name="gcircumflex" format="1">
  <advance width="610"/>
  <unicode hex="011D"/>
  <outline>
    <contour>
      <point x="450" y="236" type="curve"/>
      <point x="408" y="236" type="line"/>
      <point x="408" y="311"/>
      <point x="352" y="348"/>
      <point x="301" y="348" type="curve" smooth="yes"/>
      <point x="241" y="348"/>
      <point x="191" y="308"/>
      <point x="191" y="236" type="curve"/>
      <point x="32" y="236" type="line"/>
      <point x="32" y="392"/>
      <point x="138" y="470"/>
      <point x="250" y="470" type="curve" smooth="yes"/>
      <point x="365" y="470"/>
      <point x="450" y="385"/>
    </contour>
    <contour>
      <point x="408" y="236" type="curve"/>
      <point x="450" y="236" type="line"/>
      <point x="450" y="87"/>
      <point x="365" y="2"/>
      <point x="250" y="2" type="curve" smooth="yes"/>
      <point x="138" y="2"/>
      <point x="32" y="80"/>
      <point x="32" y="236" type="curve"/>
      <point x="191" y="236" type="line"/>
      <point x="191" y="164"/>
      <point x="241" y="124"/>
      <point x="301" y="124" type="curve" smooth="yes"/>
      <point x="352" y="124"/>
      <point x="408" y="161"/>
    </contour>
    <contour>
      <point x="42" y="-33" type="curve"/>
      <point x="188" y="-33" type="line"/>
      <point x="193" y="-89"/>
      <point x="234" y="-118"/>
      <point x="293" y="-118" type="curve" smooth="yes"/>
      <point x="357" y="-118"/>
      <point x="408" y="-75"/>
      <point x="408" y="10" type="curve" smooth="yes"/>
      <point x="408" y="460" type="line"/>
      <point x="553" y="460" type="line"/>
      <point x="553" y="10" type="line" smooth="yes"/>
      <point x="553" y="-168"/>
      <point x="440" y="-240"/>
      <point x="300" y="-240" type="curve" smooth="yes"/>
      <point x="128" y="-240"/>
      <point x="53" y="-155"/>
    </contour>
    <contour>
      <point x="306" y="616" type="line"/>
      <point x="216" y="530" type="line"/>
      <point x="110" y="602" type="line"/>
      <point x="306" y="742" type="line"/>
      <point x="504" y="602" type="line"/>
      <point x="398" y="530" type="line"/>
    </contour>
  </outline>
</glyph>
<glyph name="gdotaccent" format="1">
  <advance width="610"/>
  <unicode hex="0121"/>
  <outline>
    <contour>
      <point x="42" y="-33" type="curve"/>
      <point x="188" y="-33" type="line"/>
      <point x="193" y="-89"/>
      <point x="234" y="-118"/>
      <point x="293" y="-118" type="curve" smooth="yes"/>
      <point x="357" y="-118"/>
      <point x="408" y="-75"/>
      <point x="408" y="10" type="curve" smooth="yes"/>
      <point x="408" y="460" type="line"/>
      <point x="553" y="460" type="line"/>
      <point x="553" y="10" type="line" smooth="yes"/>
      <point x="553" y="-168"/>
      <point x="440" y="-240"/>
      <point x="300" y="-240" type="curve" smooth="yes"/>
      <point x="128" y="-240"/>
      <point x="53" y="-155"/>
    </contour>
    <contour>
      <point x="32" y="236" type="curve" smooth="yes"/>
      <point x="32" y="392"/>
      <point x="138" y="470"/>
      <point x="250" y="470" type="curve" smooth="yes"/>
      <point x="365" y="470"/>
      <point x="450" y="385"/>
      <point x="450" y="236" type="curve" smooth="yes"/>
      <point x="450" y="87"/>
      <point x="365" y="2"/>
      <point x="250" y="2" type="curve" smooth="yes"/>
      <point x="138" y="2"/>
      <point x="32" y="80"/>
    </contour>
    <contour>
      <point x="191" y="236" type="curve" smooth="yes"/>
      <point x="191" y="164"/>
      <point x="241" y="124"/>
      <point x="301" y="124" type="curve" smooth="yes"/>
      <point x="352" y="124"/>
      <point x="408" y="161"/>
      <point x="408" y="236" type="curve" smooth="yes"/>
      <point x="408" y="311"/>
      <point x="352" y="348"/>
      <point x="301" y="348" type="curve" smooth="yes"/>
      <point x="241" y="348"/>
      <point x="191" y="308"/>
    </contour>
    <contour>
      <point x="242" y="617" type="curve" smooth="yes"/>
      <point x="242" y="665"/>
      <point x="281" y="699"/>
      <point x="330" y="699" type="curve" smooth="yes"/>
      <point x="379" y="699"/>
      <point x="418" y="665"/>
      <point x="418" y="617" type="curve" smooth="yes"/>
      <point x="418" y="569"/>
      <point x="379" y="535"/>
      <point x="330" y="535" type="curve" smooth="yes"/>
      <point x="281" y="535"/>
      <point x="242" y="569"/>
    </contour>
  </outline>
</glyph>
<glyph name="Hcircumflex" format="1">
  <advance width="786"/>
  <unicode hex="0124"/>
  <outline>
    <contour>
      <point x="120" y="293" type="line"/>
      <point x="120" y="445" type="line"/>
      <point x="650" y="445" type="line"/>
      <point x="650" y="293" type="line"/>
    </contour>
    <contour>
      <point x="544" y="700" type="line"/>
      <point x="713" y="700" type="line"/>
      <point x="713" y="0" type="line"/>
      <point x="544" y="0" type="line"/>
    </contour>
    <contour>
      <point x="74" y="700" type="line"/>
      <point x="243" y="700" type="line"/>
      <point x="243" y="0" type="line"/>
      <point x="74" y="0" type="line"/>
    </contour>
    <contour>
      <point x="394" y="862" type="line"/>
      <point x="302" y="776" type="line"/>
      <point x="196" y="848" type="line"/>
      <point x="394" y="988" type="line"/>
      <point x="591" y="848" type="line"/>
      <point x="485" y="776" type="line"/>
    </contour>
  </outline>
</glyph>
<glyph name="hcircumflex" format="1">
  <advance width="568"/>
  <unicode hex="0125"/>
  <outline>
    <contour>
      <point x="212" y="780" type="line"/>
      <point x="212" y="0" type="line"/>
      <point x="60" y="0" type="line"/>
      <point x="60" y="780" type="line"/>
    </contour>
    <contour>
      <point x="358" y="280" type="line" smooth="yes"/>
      <point x="358" y="334"/>
      <point x="341" y="364"/>
      <point x="291" y="364" type="curve" smooth="yes"/>
      <point x="243" y="364"/>
      <point x="212" y="334"/>
      <point x="212" y="280" type="curve"/>
      <point x="182" y="280" type="line"/>
      <point x="182" y="389"/>
      <point x="238" y="477"/>
      <point x="352" y="477" type="curve" smooth="yes"/>
      <point x="466" y="477"/>
      <point x="510" y="414"/>
      <point x="510" y="302" type="curve" smooth="yes"/>
      <point x="510" y="0" type="line"/>
      <point x="358" y="0" type="line"/>
    </contour>
    <contour>
      <point x="232" y="926" type="line"/>
      <point x="141" y="840" type="line"/>
      <point x="34" y="911" type="line"/>
      <point x="232" y="1051" type="line"/>
      <point x="430" y="911" type="line"/>
      <point x="323" y="840" type="line"/>
    </contour>
  </outline>
</glyph>
<glyph name="Iogonek" format="1">
  <advance width="320"/>
  <unicode hex="012E"/>
  <outline>
    <contour>
      <point x="74" y="700" type="line"/>
      <point x="246" y="700" type="line"/>
      <point x="246" y="0" type="line"/>
      <point x="74" y="0" type="line"/>
    </contour>
    <contour>
      <point x="224" y="-116" type="curve"/>
      <point x="258" y="-184" type="line"/>
      <point x="243" y="-204"/>
      <point x="214" y="-224"/>
      <point x="158" y="-224" type="curve" smooth="yes"/>
      <point x="93" y="-224"/>
      <point x="40" y="-190"/>
      <point x="40" y="-124" type="curve"/>
      <point x="139" y="-98" type="line"/>
      <point x="139" y="-123"/>
      <point x="150" y="-136"/>
      <point x="174" y="-136" type="curve" smooth="yes"/>
      <point x="194" y="-136"/>
      <point x="210" y="-129"/>
    </contour>
    <contour>
      <point x="139" y="-98" type="curve"/>
      <point x="40" y="-124" type="line"/>
      <point x="40" y="-58"/>
      <point x="108" y="-16"/>
      <point x="178" y="20" type="curve"/>
      <point x="220" y="-4" type="line"/>
      <point x="168" y="-32"/>
      <point x="139" y="-68"/>
    </contour>
  </outline>
</glyph>
<glyph name="iogonek" format="1">
  <advance width="276"/>
  <unicode hex="012F"/>
  <outline>
    <contour>
      <point x="50" y="632" type="curve" smooth="yes"/>
      <point x="50" y="680"/>
      <point x="89" y="714"/>
      <point x="138" y="714" type="curve" smooth="yes"/>
      <point x="187" y="714"/>
      <point x="226" y="680"/>
      <point x="226" y="632" type="curve" smooth="yes"/>
      <point x="226" y="584"/>
      <point x="187" y="550"/>
      <point x="138" y="550" type="curve" smooth="yes"/>
      <point x="89" y="550"/>
      <point x="50" y="584"/>
    </contour>
    <contour>
      <point x="64" y="460" type="line"/>
      <point x="211" y="460" type="line"/>
      <point x="211" y="0" type="line"/>
      <point x="64" y="0" type="line"/>
    </contour>
    <contour>
      <point x="202" y="-116" type="curve"/>
      <point x="236" y="-184" type="line"/>
      <point x="221" y="-204"/>
      <point x="192" y="-224"/>
      <point x="136" y="-224" type="curve" smooth="yes"/>
      <point x="71" y="-224"/>
      <point x="18" y="-190"/>
      <point x="18" y="-124" type="curve"/>
      <point x="117" y="-98" type="line"/>
      <point x="117" y="-123"/>
      <point x="128" y="-136"/>
      <point x="152" y="-136" type="curve" smooth="yes"/>
      <point x="172" y="-136"/>
      <point x="188" y="-129"/>
    </contour>
    <contour>
      <point x="117" y="-98" type="curve"/>
      <point x="18" y="-124" type="line"/>
      <point x="18" y="-58"/>
      <point x="86" y="-16"/>
      <point x="156" y="20" type="curve"/>
      <point x="198" y="-4" type="line"/>
      <point x="146" y="-32"/>
      <point x="117" y="-68"/>
    </contour>
  </outline>
</glyph>
<glyph name="Idotaccent" format="1">
  <advance width="320"/>
  <unicode hex="0130"/>
  <outline>
    <contour>
      <point x="74" y="700" type="line"/>
      <point x="246" y="700" type="line"/>
      <point x="246" y="0" type="line"/>
      <point x="74" y="0" type="line"/>
    </contour>
    <contour>
      <point x="72" y="858" type="curve" smooth="yes"/>
      <point x="72" y="906"/>
      <point x="111" y="940"/>
      <point x="160" y="940" type="curve" smooth="yes"/>
      <point x="209" y="940"/>
      <point x="248" y="906"/>
      <point x="248" y="858" type="curve" smooth="yes"/>
      <point x="248" y="810"/>
      <point x="209" y="776"/>
      <point x="160" y="776" type="curve" smooth="yes"/>
      <point x="111" y="776"/>
      <point x="72" y="810"/>
    </contour>
  </outline>
</glyph>
<glyph name="IJ" format="1">
  <advance width="624"/>
  <unicode hex="0132"/>
  <outline>
    <contour>
      <point x="222" y="-64" type="line"/>
      <point x="242" y="-82"/>
      <point x="272" y="-96"/>
      <point x="302" y="-96" type="curve" smooth="yes"/>
      <point x="332" y="-96"/>
      <point x="368" y="-76"/>
      <point x="368" y="-16" type="curve" smooth="yes"/>
      <point x="368" y="700" type="line"/>
      <point x="550" y="700" type="line"/>
      <point x="550" y="-54" type="line" smooth="yes"/>
      <point x="550" y="-188"/>
      <point x="445" y="-239"/>
      <point x="320" y="-239" type="curve" smooth="yes"/>
      <point x="242" y="-239"/>
      <point x="170" y="-208"/>
      <point x="130" y="-182" type="curve"/>
    </contour>
    <contour>
      <point x="74" y="700" type="line"/>
      <point x="246" y="700" type="line"/>
      <point x="246" y="0" type="line"/>
      <point x="74" y="0" type="line"/>
    </contour>
  </outline>
</glyph>
<glyph name="ij" format="1">
  <advance width="545"/>
  <unicode hex="0133"/>
  <outline>
    <contour>
      <point x="318" y="632" type="curve" smooth="yes"/>
      <point x="318" y="680"/>
      <point x="358" y="714"/>
      <point x="407" y="714" type="curve" smooth="yes"/>
      <point x="456" y="714"/>
      <point x="495" y="680"/>
      <point x="495" y="632" type="curve" smooth="yes"/>
      <point x="495" y="584"/>
      <point x="456" y="550"/>
      <point x="407" y="550" type="curve" smooth="yes"/>
      <point x="358" y="550"/>
      <point x="318" y="584"/>
    </contour>
    <contour>
      <point x="240" y="-77" type="line"/>
      <point x="254" y="-95"/>
      <point x="268" y="-102"/>
      <point x="286" y="-102" type="curve" smooth="yes"/>
      <point x="316" y="-102"/>
      <point x="334" y="-81"/>
      <point x="334" y="-34" type="curve" smooth="yes"/>
      <point x="334" y="460" type="line"/>
      <point x="480" y="460" type="line"/>
      <point x="480" y="-72" type="line" smooth="yes"/>
      <point x="480" y="-174"/>
      <point x="421" y="-239"/>
      <point x="306" y="-239" type="curve" smooth="yes"/>
      <point x="238" y="-239"/>
      <point x="200" y="-208"/>
      <point x="178" y="-188" type="curve"/>
    </contour>
    <contour>
      <point x="50" y="632" type="curve" smooth="yes"/>
      <point x="50" y="680"/>
      <point x="89" y="714"/>
      <point x="138" y="714" type="curve" smooth="yes"/>
      <point x="187" y="714"/>
      <point x="226" y="680"/>
      <point x="226" y="632" type="curve" smooth="yes"/>
      <point x="226" y="584"/>
      <point x="187" y="550"/>
      <point x="138" y="550" type="curve" smooth="yes"/>
      <point x="89" y="550"/>
      <point x="50" y="584"/>
    </contour>
    <contour>
      <point x="64" y="460" type="line"/>
      <point x="211" y="460" type="line"/>
      <point x="211" y="0" type="line"/>
      <point x="64" y="0" type="line"/>
    </contour>
  </outline>
</glyph>
<glyph name="Jcircumflex" format="1">
  <advance width="330"/>
  <unicode hex="0134"/>
  <outline>
    <contour>
      <point x="-72" y="-64" type="line"/>
      <point x="-52" y="-82"/>
      <point x="-21" y="-96"/>
      <point x="9" y="-96" type="curve" smooth="yes"/>
      <point x="39" y="-96"/>
      <point x="74" y="-76"/>
      <point x="74" y="-16" type="curve" smooth="yes"/>
      <point x="74" y="700" type="line"/>
      <point x="257" y="700" type="line"/>
      <point x="257" y="-54" type="line" smooth="yes"/>
      <point x="257" y="-188"/>
      <point x="151" y="-239"/>
      <point x="26" y="-239" type="curve" smooth="yes"/>
      <point x="-52" y="-239"/>
      <point x="-124" y="-208"/>
      <point x="-164" y="-182" type="curve"/>
    </contour>
    <contour>
      <point x="165" y="862" type="line"/>
      <point x="74" y="776" type="line"/>
      <point x="-32" y="848" type="line"/>
      <point x="165" y="988" type="line"/>
      <point x="362" y="848" type="line"/>
      <point x="256" y="776" type="line"/>
    </contour>
  </outline>
</glyph>
<glyph name="jcircumflex" format="1">
  <advance width="271"/>
  <unicode hex="0135"/>
  <outline>
    <contour>
      <point x="-34" y="-77" type="line"/>
      <point x="-20" y="-95"/>
      <point x="-5" y="-102"/>
      <point x="13" y="-102" type="curve" smooth="yes"/>
      <point x="43" y="-102"/>
      <point x="61" y="-81"/>
      <point x="61" y="-34" type="curve" smooth="yes"/>
      <point x="61" y="460" type="line"/>
      <point x="207" y="460" type="line"/>
      <point x="207" y="-72" type="line" smooth="yes"/>
      <point x="207" y="-174"/>
      <point x="149" y="-239"/>
      <point x="34" y="-239" type="curve" smooth="yes"/>
      <point x="-34" y="-239"/>
      <point x="-72" y="-208"/>
      <point x="-94" y="-188" type="curve"/>
    </contour>
    <contour>
      <point x="134" y="616" type="line"/>
      <point x="42" y="530" type="line"/>
      <point x="-64" y="602" type="line"/>
      <point x="134" y="742" type="line"/>
      <point x="331" y="602" type="line"/>
      <point x="225" y="530" type="line"/>
    </contour>
  </outline>
</glyph>
<glyph name="uni0137" format="1">
  <advance width="577"/>
  <unicode hex="0137"/>
  <outline>
    <contour>
      <point x="58" y="780" type="line"/>
      <point x="203" y="780" type="line"/>
      <point x="203" y="0" type="line"/>
      <point x="58" y="0" type="line"/>
    </contour>
    <contour>
      <point x="370" y="460" type="line"/>
      <point x="551" y="460" type="line"/>
      <point x="354" y="270" type="line"/>
      <point x="571" y="0" type="line"/>
      <point x="393" y="0" type="line"/>
      <point x="174" y="270" type="line"/>
    </contour>
    <contour>
      <point x="257" y="-60" type="line"/>
      <point x="410" y="-92" type="line"/>
      <point x="284" y="-342" type="line"/>
      <point x="169" y="-319" type="line"/>
    </contour>
  </outline>
</glyph>
<glyph name="Lacute" format="1">
  <advance width="528"/>
  <unicode hex="0139"/>
  <outline>
    <contour>
      <point x="186" y="0" type="line"/>
      <point x="186" y="146" type="line"/>
      <point x="524" y="146" type="line"/>
      <point x="524" y="0" type="line"/>
    </contour>
    <contour>
      <point x="74" y="700" type="line"/>
      <point x="243" y="700" type="line"/>
      <point x="243" y="0" type="line"/>
      <point x="74" y="0" type="line"/>
    </contour>
    <contour>
      <point x="460" y="926" type="line"/>
      <point x="280" y="776" type="line"/>
      <point x="194" y="819" type="line"/>
      <point x="344" y="979" type="line"/>
    </contour>
  </outline>
</glyph>
<glyph name="uni013B" format="1">
  <advance width="528"/>
  <unicode hex="013B"/>
  <outline>
    <contour>
      <point x="186" y="0" type="line"/>
      <point x="186" y="146" type="line"/>
      <point x="524" y="146" type="line"/>
      <point x="524" y="0" type="line"/>
    </contour>
    <contour>
      <point x="74" y="700" type="line"/>
      <point x="243" y="700" type="line"/>
      <point x="243" y="0" type="line"/>
      <point x="74" y="0" type="line"/>
    </contour>
    <contour>
      <point x="267" y="-60" type="line"/>
      <point x="419" y="-92" type="line"/>
      <point x="294" y="-342" type="line"/>
      <point x="179" y="-319" type="line"/>
    </contour>
  </outline>
</glyph>
<glyph name="Lcaron" format="1">
  <advance width="528"/>
  <unicode hex="013D"/>
  <outline>
    <contour>
      <point x="186" y="0" type="line"/>
      <point x="186" y="146" type="line"/>
      <point x="524" y="146" type="line"/>
      <point x="524" y="0" type="line"/>
    </contour>
    <contour>
      <point x="74" y="700" type="line"/>
      <point x="243" y="700" type="line"/>
      <point x="243" y="0" type="line"/>
      <point x="74" y="0" type="line"/>
    </contour>
    <contour>
      <point x="390" y="716" type="line"/>
      <point x="542" y="684" type="line"/>
      <point x="416" y="434" type="line"/>
      <point x="302" y="458" type="line"/>
    </contour>
  </outline>
</glyph>
<glyph name="Ldot" format="1">
  <advance width="528"/>
  <unicode hex="013F"/>
  <outline>
    <contour>
      <point x="186" y="0" type="line"/>
      <point x="186" y="146" type="line"/>
      <point x="524" y="146" type="line"/>
      <point x="524" y="0" type="line"/>
    </contour>
    <contour>
      <point x="74" y="700" type="line"/>
      <point x="243" y="700" type="line"/>
      <point x="243" y="0" type="line"/>
      <point x="74" y="0" type="line"/>
    </contour>
    <contour>
      <point x="314" y="418" type="curve" smooth="yes"/>
      <point x="314" y="468"/>
      <point x="354" y="510"/>
      <point x="409" y="510" type="curve" smooth="yes"/>
      <point x="464" y="510"/>
      <point x="503" y="468"/>
      <point x="503" y="418" type="curve" smooth="yes"/>
      <point x="503" y="368"/>
      <point x="464" y="326"/>
      <point x="409" y="326" type="curve" smooth="yes"/>
      <point x="354" y="326"/>
      <point x="314" y="368"/>
    </contour>
  </outline>
</glyph>
<glyph name="Lslash" format="1">
  <advance width="526"/>
  <unicode hex="0141"/>
  <outline>
    <contour>
      <point x="5" y="312" type="line"/>
      <point x="-32" y="384" type="line"/>
      <point x="323" y="622" type="line"/>
      <point x="360" y="550" type="line"/>
    </contour>
    <contour>
      <point x="198" y="0" type="line"/>
      <point x="198" y="140" type="line"/>
      <point x="517" y="140" type="line"/>
      <point x="517" y="0" type="line"/>
    </contour>
    <contour>
      <point x="74" y="700" type="line"/>
      <point x="236" y="700" type="line"/>
      <point x="236" y="0" type="line"/>
      <point x="74" y="0" type="line"/>
    </contour>
  </outline>
</glyph>
<glyph name="lslash" format="1">
  <advance width="266"/>
  <unicode hex="0142"/>
  <outline>
    <contour>
      <point x="-6" y="312" type="line"/>
      <point x="-43" y="384" type="line"/>
      <point x="280" y="596" type="line"/>
      <point x="317" y="524" type="line"/>
    </contour>
    <contour>
      <point x="61" y="780" type="line"/>
      <point x="206" y="780" type="line"/>
      <point x="206" y="0" type="line"/>
      <point x="61" y="0" type="line"/>
    </contour>
  </outline>
</glyph>
<glyph name="Nacute" format="1">
  <advance width="793"/>
  <unicode hex="0143"/>
  <outline>
    <contour>
      <point x="78" y="524" type="line"/>
      <point x="74" y="735" type="line"/>
      <point x="715" y="176" type="line"/>
      <point x="720" y="-35" type="line"/>
    </contour>
    <contour>
      <point x="557" y="700" type="line"/>
      <point x="720" y="700" type="line"/>
      <point x="720" y="-35" type="line"/>
      <point x="557" y="150" type="line"/>
    </contour>
    <contour>
      <point x="74" y="735" type="line"/>
      <point x="237" y="550" type="line"/>
      <point x="237" y="0" type="line"/>
      <point x="74" y="0" type="line"/>
    </contour>
    <contour>
      <point x="536" y="915" type="line"/>
      <point x="356" y="765" type="line"/>
      <point x="270" y="808" type="line"/>
      <point x="420" y="968" type="line"/>
    </contour>
  </outline>
</glyph>
<glyph name="uni0145" format="1">
  <advance width="793"/>
  <unicode hex="0145"/>
  <outline>
    <contour>
      <point x="78" y="524" type="line"/>
      <point x="74" y="735" type="line"/>
      <point x="715" y="176" type="line"/>
      <point x="720" y="-35" type="line"/>
    </contour>
    <contour>
      <point x="557" y="700" type="line"/>
      <point x="720" y="700" type="line"/>
      <point x="720" y="-35" type="line"/>
      <point x="557" y="150" type="line"/>
    </contour>
    <contour>
      <point x="74" y="735" type="line"/>
      <point x="237" y="550" type="line"/>
      <point x="237" y="0" type="line"/>
      <point x="74" y="0" type="line"/>
    </contour>
    <contour>
      <point x="364" y="-54" type="line"/>
      <point x="514" y="-86" type="line"/>
      <point x="390" y="-336" type="line"/>
      <point x="276" y="-313" type="line"/>
    </contour>
  </outline>
</glyph>
<glyph name="ncaron" format="1">
  <advance width="575"/>
  <unicode hex="0148"/>
  <outline>
    <contour>
      <point x="212" y="460" type="line"/>
      <point x="212" y="0" type="line"/>
      <point x="60" y="0" type="line"/>
      <point x="60" y="460" type="line"/>
    </contour>
    <contour>
      <point x="358" y="280" type="line" smooth="yes"/>
      <point x="358" y="334"/>
      <point x="341" y="364"/>
      <point x="291" y="364" type="curve" smooth="yes"/>
      <point x="243" y="364"/>
      <point x="212" y="334"/>
      <point x="212" y="280" type="curve"/>
      <point x="182" y="274" type="line"/>
      <point x="182" y="383"/>
      <point x="238" y="470"/>
      <point x="352" y="470" type="curve" smooth="yes"/>
      <point x="466" y="470"/>
      <point x="516" y="408"/>
      <point x="516" y="296" type="curve" smooth="yes"/>
      <point x="516" y="0" type="line"/>
      <point x="358" y="0" type="line"/>
    </contour>
    <contour>
      <point x="287" y="656" type="line"/>
      <point x="378" y="742" type="line"/>
      <point x="484" y="670" type="line"/>
      <point x="287" y="530" type="line"/>
      <point x="90" y="670" type="line"/>
      <point x="196" y="742" type="line"/>
    </contour>
  </outline>
</glyph>
<glyph name="Obreve" format="1">
  <advance width="821"/>
  <unicode hex="014E"/>
  <outline>
    <contour>
      <point x="213" y="350" type="curve" smooth="yes"/>
      <point x="213" y="226"/>
      <point x="292" y="140"/>
      <point x="410" y="140" type="curve" smooth="yes"/>
      <point x="528" y="140"/>
      <point x="608" y="226"/>
      <point x="608" y="350" type="curve" smooth="yes"/>
      <point x="608" y="474"/>
      <point x="532" y="560"/>
      <point x="410" y="560" type="curve" smooth="yes"/>
      <point x="292" y="560"/>
      <point x="213" y="474"/>
    </contour>
    <contour>
      <point x="34" y="350" type="curve" smooth="yes"/>
      <point x="34" y="566"/>
      <point x="196" y="716"/>
      <point x="410" y="716" type="curve" smooth="yes"/>
      <point x="626" y="716"/>
      <point x="788" y="566"/>
      <point x="788" y="350" type="curve" smooth="yes"/>
      <point x="788" y="134"/>
      <point x="630" y="-22"/>
      <point x="410" y="-22" type="curve" smooth="yes"/>
      <point x="190" y="-22"/>
      <point x="34" y="134"/>
    </contour>
    <contour>
      <point x="246" y="922" type="curve"/>
      <point x="346" y="922" type="line"/>
      <point x="346" y="886"/>
      <point x="371" y="863"/>
      <point x="410" y="863" type="curve" smooth="yes"/>
      <point x="449" y="863"/>
      <point x="476" y="886"/>
      <point x="476" y="922" type="curve"/>
      <point x="575" y="922" type="line"/>
      <point x="575" y="840"/>
      <point x="515" y="776"/>
      <point x="410" y="776" type="curve" smooth="yes"/>
      <point x="305" y="776"/>
      <point x="246" y="840"/>
    </contour>
  </outline>
</glyph>
<glyph name="obreve" format="1">
  <advance width="589"/>
  <unicode hex="014F"/>
  <outline>
    <contour>
      <point x="32" y="230" type="curve" smooth="yes"/>
      <point x="32" y="376"/>
      <point x="145" y="470"/>
      <point x="295" y="470" type="curve" smooth="yes"/>
      <point x="445" y="470"/>
      <point x="558" y="376"/>
      <point x="558" y="230" type="curve" smooth="yes"/>
      <point x="558" y="84"/>
      <point x="445" y="-10"/>
      <point x="295" y="-10" type="curve" smooth="yes"/>
      <point x="145" y="-10"/>
      <point x="32" y="84"/>
    </contour>
    <contour>
      <point x="188" y="230" type="curve" smooth="yes"/>
      <point x="188" y="159"/>
      <point x="236" y="115"/>
      <point x="295" y="115" type="curve" smooth="yes"/>
      <point x="354" y="115"/>
      <point x="402" y="159"/>
      <point x="402" y="230" type="curve" smooth="yes"/>
      <point x="402" y="301"/>
      <point x="354" y="346"/>
      <point x="295" y="346" type="curve" smooth="yes"/>
      <point x="236" y="346"/>
      <point x="188" y="301"/>
    </contour>
    <contour>
      <point x="130" y="677" type="curve"/>
      <point x="230" y="677" type="line"/>
      <point x="230" y="641"/>
      <point x="256" y="618"/>
      <point x="295" y="618" type="curve" smooth="yes"/>
      <point x="334" y="618"/>
      <point x="360" y="641"/>
      <point x="360" y="677" type="curve"/>
      <point x="459" y="677" type="line"/>
      <point x="459" y="595"/>
      <point x="400" y="530"/>
      <point x="295" y="530" type="curve" smooth="yes"/>
      <point x="190" y="530"/>
      <point x="130" y="595"/>
    </contour>
  </outline>
</glyph>
<glyph name="OE" format="1">
  <advance width="985"/>
  <unicode hex="0152"/>
  <outline>
    <contour>
      <point x="562" y="300" type="line"/>
      <point x="562" y="436" type="line"/>
      <point x="930" y="436" type="line"/>
      <point x="930" y="300" type="line"/>
    </contour>
    <contour>
      <point x="484" y="670" type="line"/>
      <point x="647" y="670" type="line"/>
      <point x="647" y="30" type="line"/>
      <point x="484" y="30" type="line"/>
    </contour>
    <contour>
      <point x="950" y="140" type="line"/>
      <point x="950" y="0" type="line"/>
      <point x="390" y="0" type="line" smooth="yes"/>
      <point x="187" y="0"/>
      <point x="34" y="141"/>
      <point x="34" y="350" type="curve" smooth="yes"/>
      <point x="34" y="559"/>
      <point x="186" y="700"/>
      <point x="390" y="700" type="curve" smooth="yes"/>
      <point x="950" y="700" type="line"/>
      <point x="950" y="560" type="line"/>
      <point x="568" y="560" type="line"/>
      <point x="551" y="551" type="line"/>
      <point x="421" y="551" type="line" smooth="yes"/>
      <point x="282" y="551"/>
      <point x="210" y="482"/>
      <point x="210" y="350" type="curve" smooth="yes"/>
      <point x="210" y="218"/>
      <point x="283" y="149"/>
      <point x="421" y="149" type="curve" smooth="yes"/>
      <point x="548" y="149" type="line"/>
      <point x="572" y="140" type="line"/>
    </contour>
  </outline>
</glyph>
<glyph name="Rcaron" format="1">
  <advance width="647"/>
  <unicode hex="0158"/>
  <outline>
    <contour>
      <point x="248" y="317" type="line"/>
      <point x="425" y="317" type="line"/>
      <point x="644" y="0" type="line"/>
      <point x="445" y="0" type="line"/>
    </contour>
    <contour>
      <point x="74" y="700" type="line"/>
      <point x="243" y="700" type="line"/>
      <point x="243" y="0" type="line"/>
      <point x="74" y="0" type="line"/>
    </contour>
    <contour>
      <point x="180" y="556" type="line"/>
      <point x="180" y="700" type="line"/>
      <point x="330" y="700" type="line" smooth="yes"/>
      <point x="508" y="700"/>
      <point x="602" y="607"/>
      <point x="602" y="471" type="curve" smooth="yes"/>
      <point x="602" y="335"/>
      <point x="508" y="242"/>
      <point x="330" y="242" type="curve" smooth="yes"/>
      <point x="180" y="242" type="line"/>
      <point x="180" y="374" type="line"/>
      <point x="317" y="374" type="line" smooth="yes"/>
      <point x="385" y="374"/>
      <point x="426" y="407"/>
      <point x="426" y="465" type="curve" smooth="yes"/>
      <point x="426" y="523"/>
      <point x="385" y="556"/>
      <point x="317" y="556" type="curve" smooth="yes"/>
    </contour>
    <contour>
      <point x="313" y="902" type="line"/>
      <point x="404" y="988" type="line"/>
      <point x="510" y="916" type="line"/>
      <point x="313" y="776" type="line"/>
      <point x="116" y="916" type="line"/>
      <point x="222" y="988" type="line"/>
    </contour>
  </outline>
</glyph>
<glyph name="Scedilla" format="1">
  <advance width="625"/>
  <unicode hex="015E"/>
  <outline>
    <contour>
      <point x="153" y="251" type="line"/>
      <point x="201" y="167"/>
      <point x="249" y="125"/>
      <point x="323" y="125" type="curve" smooth="yes"/>
      <point x="378" y="125"/>
      <point x="408" y="148"/>
      <point x="408" y="193" type="curve" smooth="yes"/>
      <point x="408" y="252"/>
      <point x="344" y="270"/>
      <point x="264" y="302" type="curve" smooth="yes"/>
      <point x="195" y="329"/>
      <point x="74" y="384"/>
      <point x="74" y="520" type="curve" smooth="yes"/>
      <point x="74" y="638"/>
      <point x="176" y="716"/>
      <point x="321" y="716" type="curve" smooth="yes"/>
      <point x="471" y="716"/>
      <point x="549" y="633"/>
      <point x="577" y="562" type="curve"/>
      <point x="450" y="489" type="line"/>
      <point x="420" y="541"/>
      <point x="382" y="572"/>
      <point x="328" y="572" type="curve" smooth="yes"/>
      <point x="279" y="572"/>
      <point x="248" y="550"/>
      <point x="248" y="514" type="curve" smooth="yes"/>
      <point x="248" y="466"/>
      <point x="325" y="443"/>
      <point x="408" y="413" type="curve" smooth="yes"/>
      <point x="506" y="379"/>
      <point x="586" y="316"/>
      <point x="586" y="196" type="curve" smooth="yes"/>
      <point x="586" y="54"/>
      <point x="483" y="-22"/>
      <point x="319" y="-22" type="curve" smooth="yes"/>
      <point x="191" y="-22"/>
      <point x="78" y="53"/>
      <point x="34" y="168" type="curve"/>
    </contour>
    <contour>
      <point x="291" y="61" type="line"/>
      <point x="401" y="57" type="line"/>
      <point x="296" y="-90" type="line"/>
      <point x="204" y="-134" type="line"/>
    </contour>
    <contour>
      <point x="443" y="-159" type="curve"/>
      <point x="346" y="-150" type="line"/>
      <point x="346" y="-124"/>
      <point x="317" y="-118"/>
      <point x="286" y="-118" type="curve" smooth="yes"/>
      <point x="276" y="-118"/>
      <point x="240" y="-119"/>
      <point x="204" y="-134" type="curve"/>
      <point x="268" y="-90" type="line"/>
      <point x="295" y="-65"/>
      <point x="320" y="-61"/>
      <point x="352" y="-61" type="curve" smooth="yes"/>
      <point x="392" y="-61"/>
      <point x="443" y="-93"/>
    </contour>
    <contour>
      <point x="443" y="-159" type="line"/>
      <point x="443" y="-231"/>
      <point x="375" y="-268"/>
      <point x="312" y="-268" type="curve" smooth="yes"/>
      <point x="256" y="-268"/>
      <point x="215" y="-258"/>
      <point x="168" y="-228" type="curve"/>
      <point x="214" y="-160" type="line"/>
      <point x="240" y="-178"/>
      <point x="272" y="-185"/>
      <point x="292" y="-185" type="curve" smooth="yes"/>
      <point x="326" y="-185"/>
      <point x="346" y="-174"/>
      <point x="346" y="-150" type="curve"/>
    </contour>
  </outline>
</glyph>
<glyph name="Ydieresis" format="1">
  <advance width="660"/>
  <unicode hex="0178"/>
  <outline>
    <contour>
      <point x="244" y="360" type="line"/>
      <point x="416" y="360" type="line"/>
      <point x="416" y="0" type="line"/>
      <point x="244" y="0" type="line"/>
    </contour>
    <contour>
      <point x="466" y="700" type="line"/>
      <point x="662" y="700" type="line"/>
      <point x="330" y="138" type="line"/>
      <point x="-2" y="700" type="line"/>
      <point x="194" y="700" type="line"/>
      <point x="330" y="437" type="line"/>
    </contour>
    <contour>
      <point x="384" y="858" type="curve" smooth="yes"/>
      <point x="384" y="906"/>
      <point x="423" y="940"/>
      <point x="472" y="940" type="curve" smooth="yes"/>
      <point x="521" y="940"/>
      <point x="560" y="906"/>
      <point x="560" y="858" type="curve" smooth="yes"/>
      <point x="560" y="810"/>
      <point x="521" y="776"/>
      <point x="472" y="776" type="curve" smooth="yes"/>
      <point x="423" y="776"/>
      <point x="384" y="810"/>
    </contour>
    <contour>
      <point x="100" y="858" type="curve" smooth="yes"/>
      <point x="100" y="906"/>
      <point x="139" y="940"/>
      <point x="188" y="940" type="curve" smooth="yes"/>
      <point x="237" y="940"/>
      <point x="276" y="906"/>
      <point x="276" y="858" type="curve" smooth="yes"/>
      <point x="276" y="810"/>
      <point x="237" y="776"/>
      <point x="188" y="776" type="curve" smooth="yes"/>
      <point x="139" y="776"/>
      <point x="100" y="810"/>
    </contour>
  </outline>
</glyph>
<glyph name="Zacute" format="1">
  <advance width="620"/>
  <unicode hex="0179"/>
  <outline>
    <contour>
      <point x="57" y="548" type="line"/>
      <point x="57" y="700" type="line"/>
      <point x="606" y="700" type="line"/>
      <point x="274" y="146" type="line"/>
      <point x="570" y="146" type="line"/>
      <point x="570" y="0" type="line"/>
      <point x="8" y="0" type="line"/>
      <point x="336" y="548" type="line"/>
    </contour>
    <contour>
      <point x="501.5" y="926" type="line"/>
      <point x="321.5" y="776" type="line"/>
      <point x="235.5" y="818" type="line"/>
      <point x="385.5" y="978" type="line"/>
    </contour>
  </outline>
</glyph>
<glyph name="zacute" format="1">
  <advance width="522"/>
  <unicode hex="017A"/>
  <outline>
    <contour>
      <point x="256" y="322" type="line"/>
      <point x="58" y="322" type="line"/>
      <point x="58" y="460" type="line"/>
      <point x="508" y="460" type="line"/>
      <point x="278" y="138" type="line"/>
      <point x="475" y="138" type="line"/>
      <point x="475" y="0" type="line"/>
      <point x="15" y="0" type="line"/>
    </contour>
    <contour>
      <point x="453" y="680" type="line"/>
      <point x="273" y="530" type="line"/>
      <point x="187" y="572" type="line"/>
      <point x="337" y="732" type="line"/>
    </contour>
  </outline>
</glyph>
<glyph name="Zdotaccent" format="1">
  <advance width="620"/>
  <unicode hex="017B"/>
  <outline>
    <contour>
      <point x="57" y="548" type="line"/>
      <point x="57" y="700" type="line"/>
      <point x="606" y="700" type="line"/>
      <point x="274" y="146" type="line"/>
      <point x="570" y="146" type="line"/>
      <point x="570" y="0" type="line"/>
      <point x="8" y="0" type="line"/>
      <point x="336" y="548" type="line"/>
    </contour>
    <contour>
      <point x="243.5" y="858" type="curve" smooth="yes"/>
      <point x="243.5" y="906"/>
      <point x="282.5" y="940"/>
      <point x="331.5" y="940" type="curve" smooth="yes"/>
      <point x="380.5" y="940"/>
      <point x="419.5" y="906"/>
      <point x="419.5" y="858" type="curve" smooth="yes"/>
      <point x="419.5" y="810"/>
      <point x="380.5" y="776"/>
      <point x="331.5" y="776" type="curve" smooth="yes"/>
      <point x="282.5" y="776"/>
      <point x="243.5" y="810"/>
    </contour>
  </outline>
</glyph>
<glyph name="zdotaccent" format="1">
  <advance width="522"/>
  <unicode hex="017C"/>
  <outline>
    <contour>
      <point x="256" y="322" type="line"/>
      <point x="58" y="322" type="line"/>
      <point x="58" y="460" type="line"/>
      <point x="508" y="460" type="line"/>
      <point x="278" y="138" type="line"/>
      <point x="475" y="138" type="line"/>
      <point x="475" y="0" type="line"/>
      <point x="15" y="0" type="line"/>
    </contour>
    <contour>
      <point x="195" y="622" type="curve" smooth="yes"/>
      <point x="195" y="670"/>
      <point x="234" y="704"/>
      <point x="283" y="704" type="curve" smooth="yes"/>
      <point x="332" y="704"/>
      <point x="371" y="670"/>
      <point x="371" y="622" type="curve" smooth="yes"/>
      <point x="371" y="574"/>
      <point x="332" y="540"/>
      <point x="283" y="540" type="curve" smooth="yes"/>
      <point x="234" y="540"/>
      <point x="195" y="574"/>
    </contour>
  </outline>
</glyph>
<glyph name="uni0213" format="1">
  <advance width="411"/>
  <unicode hex="0213"/>
  <outline>
    <contour>
      <point x="208" y="460" type="line"/>
      <point x="208" y="0" type="line"/>
      <point x="60" y="0" type="line"/>
      <point x="60" y="460" type="line"/>
    </contour>
    <contour>
      <point x="341" y="303" type="line"/>
      <point x="325" y="319"/>
      <point x="308" y="330"/>
      <point x="282" y="330" type="curve" smooth="yes"/>
      <point x="238" y="330"/>
      <point x="208" y="293"/>
      <point x="208" y="227" type="curve"/>
      <point x="172" y="280" type="line"/>
      <point x="172" y="389"/>
      <point x="246" y="471"/>
      <point x="324" y="471" type="curve" smooth="yes"/>
      <point x="357" y="471"/>
      <point x="391" y="456"/>
      <point x="407" y="433" type="curve"/>
    </contour>
    <contour>
      <point x="69" y="531" type="curve"/>
      <point x="168" y="531" type="line"/>
      <point x="168" y="567"/>
      <point x="195" y="590"/>
      <point x="234" y="590" type="curve" smooth="yes"/>
      <point x="273" y="590"/>
      <point x="298" y="567"/>
      <point x="298" y="531" type="curve"/>
      <point x="398" y="531" type="line"/>
      <point x="398" y="613"/>
      <point x="339" y="678"/>
      <point x="234" y="678" type="curve" smooth="yes"/>
      <point x="129" y="678"/>
      <point x="69" y="613"/>
    </contour>
  </outline>
</glyph>
<glyph name="uni0219" format="1">
  <advance width="456"/>
  <unicode hex="0219"/>
  <outline>
    <contour>
      <point x="83" y="174" type="line"/>
      <point x="151" y="114"/>
      <point x="203" y="98"/>
      <point x="235" y="98" type="curve" smooth="yes"/>
      <point x="262" y="98"/>
      <point x="280" y="105"/>
      <point x="280" y="128" type="curve" smooth="yes"/>
      <point x="280" y="162"/>
      <point x="212" y="173"/>
      <point x="158" y="197" type="curve" smooth="yes"/>
      <point x="98" y="225"/>
      <point x="42" y="256"/>
      <point x="42" y="336" type="curve" smooth="yes"/>
      <point x="42" y="424"/>
      <point x="126" y="470"/>
      <point x="225" y="470" type="curve" smooth="yes"/>
      <point x="305" y="470"/>
      <point x="373" y="440"/>
      <point x="422" y="402" type="curve"/>
      <point x="368" y="304" type="line"/>
      <point x="332" y="340"/>
      <point x="272" y="360"/>
      <point x="235" y="360" type="curve" smooth="yes"/>
      <point x="203" y="360"/>
      <point x="187" y="352"/>
      <point x="187" y="332" type="curve" smooth="yes"/>
      <point x="187" y="305"/>
      <point x="248" y="290"/>
      <point x="306" y="268" type="curve" smooth="yes"/>
      <point x="371" y="243"/>
      <point x="432" y="210"/>
      <point x="432" y="130" type="curve" smooth="yes"/>
      <point x="432" y="24"/>
      <point x="367" y="-20"/>
      <point x="255" y="-20" type="curve" smooth="yes"/>
      <point x="157" y="-20"/>
      <point x="76" y="19"/>
      <point x="18" y="75" type="curve"/>
    </contour>
    <contour>
      <point x="198" y="-67" type="line"/>
      <point x="350" y="-100" type="line"/>
      <point x="224" y="-350" type="line"/>
      <point x="110" y="-326" type="line"/>
    </contour>
  </outline>
</glyph>
<glyph name="dotaccent" format="1">
  <advance width="300"/>
  <unicode hex="02D9"/>
  <outline>
    <contour>
      <point x="62" y="815" type="curve" smooth="yes"/>
      <point x="62" y="863"/>
      <point x="101" y="897"/>
      <point x="150" y="897" type="curve" smooth="yes"/>
      <point x="199" y="897"/>
      <point x="238" y="863"/>
      <point x="238" y="815" type="curve" smooth="yes"/>
      <point x="238" y="767"/>
      <point x="199" y="733"/>
      <point x="150" y="733" type="curve" smooth="yes"/>
      <point x="101" y="733"/>
      <point x="62" y="767"/>
    </contour>
  </outline>
</glyph>
<glyph name="tilde" format="1">
  <advance width="530"/>
  <unicode hex="02DC"/>
  <outline>
    <contour>
      <point x="75" y="638" type="line"/>
      <point x="85" y="687"/>
      <point x="130" y="732"/>
      <point x="194" y="732" type="curve" smooth="yes"/>
      <point x="260" y="732"/>
      <point x="275" y="680"/>
      <point x="331" y="680" type="curve" smooth="yes"/>
      <point x="357" y="680"/>
      <point x="376" y="701"/>
      <point x="396" y="733" type="curve"/>
      <point x="468" y="658" type="line"/>
      <point x="452" y="621"/>
      <point x="396" y="573"/>
      <point x="334" y="573" type="curve" smooth="yes"/>
      <point x="279" y="573"/>
      <point x="244" y="626"/>
      <point x="194" y="626" type="curve" smooth="yes"/>
      <point x="156" y="626"/>
      <point x="146" y="591"/>
      <point x="146" y="576" type="curve"/>
    </contour>
  </outline>
</glyph>
<glyph name="uni1E9E" format="1">
  <advance width="874"/>
  <unicode hex="1E9E"/>
  <outline>
    <contour>
      <point x="80" y="363" type="line"/>
      <point x="242" y="341" type="line"/>
      <point x="242" y="0" type="line"/>
      <point x="80" y="0" type="line"/>
    </contour>
    <contour>
      <point x="502" y="345" type="curve"/>
      <point x="502" y="414" type="line"/>
      <point x="581" y="414"/>
      <point x="626" y="449"/>
      <point x="626" y="504" type="curve" smooth="yes"/>
      <point x="626" y="553"/>
      <point x="577" y="585"/>
      <point x="477" y="585" type="curve" smooth="yes"/>
      <point x="352" y="585"/>
      <point x="242" y="516"/>
      <point x="242" y="341" type="curve"/>
      <point x="80" y="363" type="line"/>
      <point x="80" y="581"/>
      <point x="239" y="710"/>
      <point x="471" y="710" type="curve" smooth="yes"/>
      <point x="673" y="710"/>
      <point x="793" y="637"/>
      <point x="793" y="523" type="curve" smooth="yes"/>
      <point x="793" y="414"/>
      <point x="677" y="345"/>
    </contour>
    <contour>
      <point x="549" y="-16" type="curve" smooth="yes"/>
      <point x="369" y="-16"/>
      <point x="295" y="110"/>
      <point x="295" y="219" type="curve"/>
      <point x="438" y="219" type="line"/>
      <point x="438" y="159"/>
      <point x="482" y="115"/>
      <point x="549" y="115" type="curve" smooth="yes"/>
      <point x="618" y="115"/>
      <point x="652" y="147"/>
      <point x="652" y="206" type="curve" smooth="yes"/>
      <point x="652" y="275"/>
      <point x="592" y="308"/>
      <point x="502" y="308" type="curve"/>
      <point x="502" y="380" type="line"/>
      <point x="677" y="380"/>
      <point x="813" y="324"/>
      <point x="813" y="185" type="curve" smooth="yes"/>
      <point x="813" y="66"/>
      <point x="702" y="-16"/>
    </contour>
  </outline>
</glyph>
<glyph name="emdash" format="1">
  <advance width="940"/>
  <unicode hex="2014"/>
  <outline>
    <contour>
      <point x="70" y="172" type="line"/>
      <point x="70" y="303" type="line"/>
      <point x="867" y="303" type="line"/>
      <point x="867" y="172" type="line"/>
    </contour>
  </outline>
</glyph>
<glyph name="quotedblleft" format="1">
  <advance width="562"/>
  <unicode hex="201C"/>
  <outline>
    <contour>
      <point x="228" y="445" type="line"/>
      <point x="70" y="445" type="line"/>
      <point x="173" y="700" type="line"/>
      <point x="282" y="700" type="line"/>
    </contour>
    <contour>
      <point x="458" y="445" type="line"/>
      <point x="301" y="445" type="line"/>
      <point x="404" y="700" type="line"/>
      <point x="512" y="700" type="line"/>
    </contour>
  </outline>
</glyph>
<glyph name="perthousand" format="1">
  <advance width="1374"/>
  <unicode hex="2030"/>
  <outline>
    <contour>
      <point x="974" y="166" type="curve" smooth="yes"/>
      <point x="974" y="268"/>
      <point x="1055" y="351"/>
      <point x="1163" y="351" type="curve" smooth="yes"/>
      <point x="1271" y="351"/>
      <point x="1352" y="268"/>
      <point x="1352" y="166" type="curve" smooth="yes"/>
      <point x="1352" y="64"/>
      <point x="1271" y="-19"/>
      <point x="1163" y="-19" type="curve" smooth="yes"/>
      <point x="1055" y="-19"/>
      <point x="974" y="64"/>
    </contour>
    <contour>
      <point x="1098" y="166" type="curve" smooth="yes"/>
      <point x="1098" y="130"/>
      <point x="1125" y="100"/>
      <point x="1163" y="100" type="curve" smooth="yes"/>
      <point x="1201" y="100"/>
      <point x="1228" y="130"/>
      <point x="1228" y="166" type="curve" smooth="yes"/>
      <point x="1228" y="202"/>
      <point x="1201" y="232"/>
      <point x="1163" y="232" type="curve" smooth="yes"/>
      <point x="1125" y="232"/>
      <point x="1098" y="202"/>
    </contour>
    <contour>
      <point x="22" y="534" type="curve" smooth="yes"/>
      <point x="22" y="636"/>
      <point x="104" y="720"/>
      <point x="212" y="720" type="curve" smooth="yes"/>
      <point x="320" y="720"/>
      <point x="401" y="636"/>
      <point x="401" y="534" type="curve" smooth="yes"/>
      <point x="401" y="432"/>
      <point x="320" y="350"/>
      <point x="212" y="350" type="curve" smooth="yes"/>
      <point x="104" y="350"/>
      <point x="22" y="432"/>
    </contour>
    <contour>
      <point x="147" y="534" type="curve" smooth="yes"/>
      <point x="147" y="498"/>
      <point x="174" y="468"/>
      <point x="212" y="468" type="curve" smooth="yes"/>
      <point x="250" y="468"/>
      <point x="276" y="498"/>
      <point x="276" y="534" type="curve" smooth="yes"/>
      <point x="276" y="570"/>
      <point x="250" y="600"/>
      <point x="212" y="600" type="curve" smooth="yes"/>
      <point x="174" y="600"/>
      <point x="147" y="570"/>
    </contour>
    <contour>
      <point x="519" y="166" type="curve" smooth="yes"/>
      <point x="519" y="268"/>
      <point x="600" y="351"/>
      <point x="708" y="351" type="curve" smooth="yes"/>
      <point x="816" y="351"/>
      <point x="897" y="268"/>
      <point x="897" y="166" type="curve" smooth="yes"/>
      <point x="897" y="64"/>
      <point x="816" y="-19"/>
      <point x="708" y="-19" type="curve" smooth="yes"/>
      <point x="600" y="-19"/>
      <point x="519" y="64"/>
    </contour>
    <contour>
      <point x="644" y="166" type="curve" smooth="yes"/>
      <point x="644" y="130"/>
      <point x="670" y="100"/>
      <point x="708" y="100" type="curve" smooth="yes"/>
      <point x="746" y="100"/>
      <point x="772" y="130"/>
      <point x="772" y="166" type="curve" smooth="yes"/>
      <point x="772" y="202"/>
      <point x="746" y="232"/>
      <point x="708" y="232" type="curve" smooth="yes"/>
      <point x="670" y="232"/>
      <point x="644" y="202"/>
    </contour>
    <contour>
      <point x="650" y="700" type="line"/>
      <point x="807" y="700" type="line"/>
      <point x="269" y="0" type="line"/>
      <point x="113" y="0" type="line"/>
    </contour>
  </outline>
</glyph>
<glyph name="uni2078" format="1">
  <advance width="362"/>
  <unicode hex="2078"/>
  <outline>
    <contour>
      <point x="38" y="599" type="curve" smooth="yes"/>
      <point x="38" y="669"/>
      <point x="103" y="710"/>
      <point x="180" y="710" type="curve" smooth="yes"/>
      <point x="257" y="710"/>
      <point x="322" y="669"/>
      <point x="322" y="599" type="curve" smooth="yes"/>
      <point x="322" y="523"/>
      <point x="249" y="486"/>
      <point x="180" y="486" type="curve" smooth="yes"/>
      <point x="111" y="486"/>
      <point x="38" y="523"/>
    </contour>
    <contour>
      <point x="134" y="590" type="curve" smooth="yes"/>
      <point x="134" y="561"/>
      <point x="154" y="541"/>
      <point x="180" y="541" type="curve" smooth="yes"/>
      <point x="206" y="541"/>
      <point x="226" y="561"/>
      <point x="226" y="590" type="curve" smooth="yes"/>
      <point x="226" y="619"/>
      <point x="208" y="636"/>
      <point x="180" y="636" type="curve" smooth="yes"/>
      <point x="152" y="636"/>
      <point x="134" y="619"/>
    </contour>
    <contour>
      <point x="22" y="394" type="curve" smooth="yes"/>
      <point x="22" y="482"/>
      <point x="111" y="518"/>
      <point x="180" y="518" type="curve" smooth="yes"/>
      <point x="249" y="518"/>
      <point x="337" y="482"/>
      <point x="337" y="394" type="curve" smooth="yes"/>
      <point x="337" y="318"/>
      <point x="262" y="270"/>
      <point x="180" y="270" type="curve" smooth="yes"/>
      <point x="98" y="270"/>
      <point x="22" y="318"/>
    </contour>
    <contour>
      <point x="124" y="410" type="curve" smooth="yes"/>
      <point x="124" y="373"/>
      <point x="149" y="352"/>
      <point x="180" y="352" type="curve" smooth="yes"/>
      <point x="211" y="352"/>
      <point x="236" y="373"/>
      <point x="236" y="410" type="curve" smooth="yes"/>
      <point x="236" y="441"/>
      <point x="211" y="464"/>
      <point x="180" y="464" type="curve" smooth="yes"/>
      <point x="149" y="464"/>
      <point x="124" y="441"/>
    </contour>
  </outline>
</glyph>
<glyph name="uni2089" format="1">
  <advance width="398"/>
  <unicode hex="2089"/>
  <outline>
    <contour>
      <point x="266" y="274" type="curve" smooth="yes"/>
      <point x="266" y="317"/>
      <point x="236" y="345"/>
      <point x="196" y="345" type="curve" smooth="yes"/>
      <point x="156" y="345"/>
      <point x="125" y="317"/>
      <point x="125" y="274" type="curve" smooth="yes"/>
      <point x="125" y="231"/>
      <point x="156" y="203"/>
      <point x="196" y="203" type="curve" smooth="yes"/>
      <point x="236" y="203"/>
      <point x="266" y="231"/>
    </contour>
    <contour>
      <point x="198" y="4" type="line"/>
      <point x="68" y="4" type="line"/>
      <point x="204" y="156" type="line"/>
      <point x="225" y="164" type="line"/>
      <point x="203" y="142"/>
      <point x="184" y="138"/>
      <point x="154" y="138" type="curve" smooth="yes"/>
      <point x="92" y="138"/>
      <point x="25" y="190"/>
      <point x="25" y="274" type="curve" smooth="yes"/>
      <point x="25" y="377"/>
      <point x="102" y="432"/>
      <point x="196" y="432" type="curve" smooth="yes"/>
      <point x="290" y="432"/>
      <point x="368" y="377"/>
      <point x="368" y="274" type="curve" smooth="yes"/>
      <point x="368" y="229"/>
      <point x="345" y="192"/>
      <point x="318" y="158" type="curve" smooth="yes"/>
    </contour>
  </outline>
</glyph>
<glyph name="Euro" format="1">
  <advance width="655"/>
  <unicode hex="20AC"/>
  <outline>
    <contour>
      <point x="54" y="382" type="line"/>
      <point x="54" y="465" type="line"/>
      <point x="546" y="465" type="line"/>
      <point x="546" y="382" type="line"/>
    </contour>
    <contour>
      <point x="40" y="250" type="line"/>
      <point x="40" y="334" type="line"/>
      <point x="526" y="334" type="line"/>
      <point x="526" y="250" type="line"/>
    </contour>
    <contour>
      <point x="248" y="350" type="curve" smooth="yes"/>
      <point x="248" y="200"/>
      <point x="317" y="120"/>
      <point x="414" y="120" type="curve" smooth="yes"/>
      <point x="471" y="120"/>
      <point x="523" y="142"/>
      <point x="564" y="182" type="curve"/>
      <point x="564" y="22" type="line"/>
      <point x="519" y="-4"/>
      <point x="468" y="-20"/>
      <point x="414" y="-20" type="curve" smooth="yes"/>
      <point x="221" y="-20"/>
      <point x="101" y="141"/>
      <point x="101" y="350" type="curve" smooth="yes"/>
      <point x="101" y="559"/>
      <point x="221" y="720"/>
      <point x="414" y="720" type="curve" smooth="yes"/>
      <point x="468" y="720"/>
      <point x="519" y="705"/>
      <point x="564" y="679" type="curve"/>
      <point x="564" y="518" type="line"/>
      <point x="523" y="558"/>
      <point x="471" y="580"/>
      <point x="414" y="580" type="curve" smooth="yes"/>
      <point x="317" y="580"/>
      <point x="248" y="500"/>
    </contour>
  </outline>
</glyph>
<glyph name="trademark" format="1">
  <advance width="746"/>
  <unicode hex="2122"/>
  <outline>
    <contour>
      <point x="30" y="624" type="line"/>
      <point x="30" y="700" type="line"/>
      <point x="307" y="700" type="line"/>
      <point x="307" y="624" type="line"/>
      <point x="210" y="624" type="line"/>
      <point x="210" y="350" type="line"/>
      <point x="126" y="350" type="line"/>
      <point x="126" y="624" type="line"/>
    </contour>
    <contour>
      <point x="602" y="593" type="line"/>
      <point x="664" y="717" type="line"/>
      <point x="720" y="350" type="line"/>
      <point x="631" y="350" type="line"/>
    </contour>
    <contour>
      <point x="365" y="717" type="line"/>
      <point x="427" y="593" type="line"/>
      <point x="398" y="350" type="line"/>
      <point x="308" y="350" type="line"/>
    </contour>
    <contour>
      <point x="664" y="717" type="line"/>
      <point x="664" y="602" type="line"/>
      <point x="514" y="382" type="line"/>
      <point x="365" y="602" type="line"/>
      <point x="365" y="717" type="line"/>
      <point x="514" y="504" type="line"/>
    </contour>
  </outline>
</glyph>
<glyph name="uni2150" format="1">
  <advance width="942"/>
  <unicode hex="2150"/>
  <outline>
    <contour>
      <point x="606" y="700" type="line"/>
      <point x="726" y="700" type="line"/>
      <point x="206" y="0" type="line"/>
      <point x="86" y="0" type="line"/>
    </contour>
    <contour>
      <point x="24" y="572" type="line"/>
      <point x="24" y="661" type="line"/>
      <point x="226" y="702" type="line"/>
      <point x="226" y="274" type="line"/>
      <point x="128" y="274" type="line"/>
      <point x="128" y="598" type="line"/>
    </contour>
    <contour>
      <point x="578" y="325" type="line"/>
      <point x="578" y="420" type="line"/>
      <point x="920" y="420" type="line"/>
      <point x="718" y="0" type="line"/>
      <point x="608" y="0" type="line"/>
      <point x="771" y="325" type="line"/>
    </contour>
  </outline>
</glyph>
<glyph name="uni2151" format="1">
  <advance width="884"/>
  <unicode hex="2151"/>
  <outline>
    <contour>
      <point x="599" y="700" type="line"/>
      <point x="720" y="700" type="line"/>
      <point x="200" y="0" type="line"/>
      <point x="79" y="0" type="line"/>
    </contour>
    <contour>
      <point x="24" y="572" type="line"/>
      <point x="24" y="661" type="line"/>
      <point x="226" y="702" type="line"/>
      <point x="226" y="274" type="line"/>
      <point x="128" y="274" type="line"/>
      <point x="128" y="598" type="line"/>
    </contour>
    <contour>
      <point x="760" y="274" type="curve" smooth="yes"/>
      <point x="760" y="317"/>
      <point x="730" y="345"/>
      <point x="690" y="345" type="curve" smooth="yes"/>
      <point x="650" y="345"/>
      <point x="620" y="317"/>
      <point x="620" y="274" type="curve" smooth="yes"/>
      <point x="620" y="231"/>
      <point x="650" y="203"/>
      <point x="690" y="203" type="curve" smooth="yes"/>
      <point x="730" y="203"/>
      <point x="760" y="231"/>
    </contour>
    <contour>
      <point x="692" y="4" type="line"/>
      <point x="562" y="4" type="line"/>
      <point x="698" y="156" type="line"/>
      <point x="719" y="164" type="line"/>
      <point x="697" y="142"/>
      <point x="679" y="138"/>
      <point x="649" y="138" type="curve" smooth="yes"/>
      <point x="587" y="138"/>
      <point x="520" y="190"/>
      <point x="520" y="274" type="curve" smooth="yes"/>
      <point x="520" y="377"/>
      <point x="596" y="432"/>
      <point x="690" y="432" type="curve" smooth="yes"/>
      <point x="784" y="432"/>
      <point x="862" y="377"/>
      <point x="862" y="274" type="curve" smooth="yes"/>
      <point x="862" y="229"/>
      <point x="839" y="192"/>
      <point x="812" y="158" type="curve" smooth="yes"/>
    </contour>
  </outline>
</glyph>
<glyph name="uni2152" format="1">
  <advance width="1211"/>
  <unicode hex="2152"/>
  <outline>
    <contour>
      <point x="599" y="700" type="line"/>
      <point x="720" y="700" type="line"/>
      <point x="200" y="0" type="line"/>
      <point x="79" y="0" type="line"/>
    </contour>
    <contour>
      <point x="24" y="572" type="line"/>
      <point x="24" y="661" type="line"/>
      <point x="226" y="702" type="line"/>
      <point x="226" y="274" type="line"/>
      <point x="128" y="274" type="line"/>
      <point x="128" y="598" type="line"/>
    </contour>
    <contour>
      <point x="550" y="299" type="line"/>
      <point x="550" y="388" type="line"/>
      <point x="752" y="429" type="line"/>
      <point x="752" y="1" type="line"/>
      <point x="654" y="1" type="line"/>
      <point x="654" y="326" type="line"/>
    </contour>
    <contour>
      <point x="926" y="210" type="curve" smooth="yes"/>
      <point x="926" y="131"/>
      <point x="958" y="80"/>
      <point x="1004" y="80" type="curve" smooth="yes"/>
      <point x="1050" y="80"/>
      <point x="1080" y="131"/>
      <point x="1080" y="210" type="curve" smooth="yes"/>
      <point x="1080" y="289"/>
      <point x="1050" y="340"/>
      <point x="1004" y="340" type="curve" smooth="yes"/>
      <point x="958" y="340"/>
      <point x="926" y="289"/>
    </contour>
    <contour>
      <point x="828" y="210" type="curve" smooth="yes"/>
      <point x="828" y="346"/>
      <point x="901" y="428"/>
      <point x="1004" y="428" type="curve" smooth="yes"/>
      <point x="1111" y="428"/>
      <point x="1178" y="346"/>
      <point x="1178" y="210" type="curve" smooth="yes"/>
      <point x="1178" y="74"/>
      <point x="1111" y="-8"/>
      <point x="1004" y="-8" type="curve" smooth="yes"/>
      <point x="901" y="-8"/>
      <point x="828" y="74"/>
    </contour>
  </outline>
</glyph>
<glyph name="twothirds" format="1">
  <advance width="1007"/>
  <unicode hex="2154"/>
  <outline>
    <contour>
      <point x="745" y="700" type="line"/>
      <point x="866" y="700" type="line"/>
      <point x="346" y="0" type="line"/>
      <point x="225" y="0" type="line"/>
    </contour>
    <contour>
      <point x="30" y="282" type="line"/>
      <point x="218" y="476" type="line" smooth="yes"/>
      <point x="252" y="512"/>
      <point x="272" y="536"/>
      <point x="272" y="570" type="curve" smooth="yes"/>
      <point x="272" y="597"/>
      <point x="254" y="624"/>
      <point x="216" y="624" type="curve" smooth="yes"/>
      <point x="177" y="624"/>
      <point x="150" y="592"/>
      <point x="150" y="547" type="curve"/>
      <point x="50" y="547" type="line"/>
      <point x="50" y="636"/>
      <point x="108" y="711"/>
      <point x="218" y="711" type="curve" smooth="yes"/>
      <point x="322" y="711"/>
      <point x="376" y="641"/>
      <point x="376" y="575" type="curve" smooth="yes"/>
      <point x="376" y="530"/>
      <point x="352" y="493"/>
      <point x="316" y="462" type="curve" smooth="yes"/>
      <point x="218" y="375" type="line"/>
      <point x="386" y="375" type="line"/>
      <point x="386" y="282" type="line"/>
    </contour>
    <contour>
      <point x="792" y="204" type="curve"/>
      <point x="792" y="249" type="line"/>
      <point x="838" y="249"/>
      <point x="870" y="276"/>
      <point x="870" y="306" type="curve" smooth="yes"/>
      <point x="870" y="331"/>
      <point x="854" y="347"/>
      <point x="822" y="347" type="curve" smooth="yes"/>
      <point x="790" y="347"/>
      <point x="768" y="327"/>
      <point x="768" y="297" type="curve"/>
      <point x="674" y="297" type="line"/>
      <point x="674" y="371"/>
      <point x="732" y="428"/>
      <point x="822" y="428" type="curve" smooth="yes"/>
      <point x="916" y="428"/>
      <point x="970" y="376"/>
      <point x="970" y="312" type="curve" smooth="yes"/>
      <point x="970" y="240"/>
      <point x="892" y="204"/>
    </contour>
    <contour>
      <point x="818" y="-10" type="curve" smooth="yes"/>
      <point x="716" y="-10"/>
      <point x="656" y="60"/>
      <point x="656" y="134" type="curve"/>
      <point x="756" y="134" type="line"/>
      <point x="756" y="92"/>
      <point x="787" y="72"/>
      <point x="822" y="72" type="curve" smooth="yes"/>
      <point x="857" y="72"/>
      <point x="882" y="88"/>
      <point x="882" y="124" type="curve" smooth="yes"/>
      <point x="882" y="159"/>
      <point x="854" y="184"/>
      <point x="792" y="184" type="curve"/>
      <point x="792" y="235" type="line"/>
      <point x="903" y="235"/>
      <point x="982" y="199"/>
      <point x="982" y="114" type="curve" smooth="yes"/>
      <point x="982" y="41"/>
      <point x="921" y="-10"/>
    </contour>
  </outline>
</glyph>
<glyph name="oneeighth" format="1">
  <advance width="891"/>
  <unicode hex="215B"/>
  <outline>
    <contour>
      <point x="618" y="700" type="line"/>
      <point x="740" y="700" type="line"/>
      <point x="220" y="0" type="line"/>
      <point x="98" y="0" type="line"/>
    </contour>
    <contour>
      <point x="24" y="572" type="line"/>
      <point x="24" y="661" type="line"/>
      <point x="226" y="702" type="line"/>
      <point x="226" y="274" type="line"/>
      <point x="128" y="274" type="line"/>
      <point x="128" y="598" type="line"/>
    </contour>
    <contour>
      <point x="561" y="319" type="curve" smooth="yes"/>
      <point x="561" y="389"/>
      <point x="627" y="430"/>
      <point x="704" y="430" type="curve" smooth="yes"/>
      <point x="781" y="430"/>
      <point x="846" y="389"/>
      <point x="846" y="319" type="curve" smooth="yes"/>
      <point x="846" y="243"/>
      <point x="773" y="206"/>
      <point x="704" y="206" type="curve" smooth="yes"/>
      <point x="635" y="206"/>
      <point x="561" y="243"/>
    </contour>
    <contour>
      <point x="657" y="310" type="curve" smooth="yes"/>
      <point x="657" y="281"/>
      <point x="678" y="261"/>
      <point x="704" y="261" type="curve" smooth="yes"/>
      <point x="730" y="261"/>
      <point x="750" y="281"/>
      <point x="750" y="310" type="curve" smooth="yes"/>
      <point x="750" y="339"/>
      <point x="732" y="356"/>
      <point x="704" y="356" type="curve" smooth="yes"/>
      <point x="676" y="356"/>
      <point x="657" y="339"/>
    </contour>
    <contour>
      <point x="546" y="114" type="curve" smooth="yes"/>
      <point x="546" y="202"/>
      <point x="635" y="238"/>
      <point x="704" y="238" type="curve" smooth="yes"/>
      <point x="773" y="238"/>
      <point x="860" y="202"/>
      <point x="860" y="114" type="curve" smooth="yes"/>
      <point x="860" y="38"/>
      <point x="786" y="-10"/>
      <point x="704" y="-10" type="curve" smooth="yes"/>
      <point x="622" y="-10"/>
      <point x="546" y="38"/>
    </contour>
    <contour>
      <point x="648" y="130" type="curve" smooth="yes"/>
      <point x="648" y="93"/>
      <point x="673" y="72"/>
      <point x="704" y="72" type="curve" smooth="yes"/>
      <point x="735" y="72"/>
      <point x="759" y="93"/>
      <point x="759" y="130" type="curve" smooth="yes"/>
      <point x="759" y="161"/>
      <point x="735" y="184"/>
      <point x="704" y="184" type="curve" smooth="yes"/>
      <point x="673" y="184"/>
      <point x="648" y="161"/>
    </contour>
  </outline>
</glyph>
<glyph name="threeeighths" format="1">
  <advance width="953"/>
  <unicode hex="215C"/>
  <outline>
    <contour>
      <point x="680" y="700" type="line"/>
      <point x="801" y="700" type="line"/>
      <point x="281" y="0" type="line"/>
      <point x="160" y="0" type="line"/>
    </contour>
    <contour>
      <point x="159" y="484" type="curve"/>
      <point x="159" y="529" type="line"/>
      <point x="205" y="529"/>
      <point x="236" y="556"/>
      <point x="236" y="586" type="curve" smooth="yes"/>
      <point x="236" y="611"/>
      <point x="221" y="627"/>
      <point x="189" y="627" type="curve" smooth="yes"/>
      <point x="157" y="627"/>
      <point x="134" y="607"/>
      <point x="134" y="577" type="curve"/>
      <point x="40" y="577" type="line"/>
      <point x="40" y="651"/>
      <point x="100" y="708"/>
      <point x="190" y="708" type="curve" smooth="yes"/>
      <point x="284" y="708"/>
      <point x="338" y="656"/>
      <point x="338" y="592" type="curve" smooth="yes"/>
      <point x="338" y="520"/>
      <point x="259" y="484"/>
    </contour>
    <contour>
      <point x="184" y="270" type="curve" smooth="yes"/>
      <point x="82" y="270"/>
      <point x="22" y="340"/>
      <point x="22" y="414" type="curve"/>
      <point x="123" y="414" type="line"/>
      <point x="123" y="372"/>
      <point x="153" y="352"/>
      <point x="188" y="352" type="curve" smooth="yes"/>
      <point x="223" y="352"/>
      <point x="248" y="368"/>
      <point x="248" y="404" type="curve" smooth="yes"/>
      <point x="248" y="439"/>
      <point x="221" y="464"/>
      <point x="159" y="464" type="curve"/>
      <point x="159" y="515" type="line"/>
      <point x="270" y="515"/>
      <point x="350" y="479"/>
      <point x="350" y="394" type="curve" smooth="yes"/>
      <point x="350" y="321"/>
      <point x="287" y="270"/>
    </contour>
    <contour>
      <point x="623" y="319" type="curve" smooth="yes"/>
      <point x="623" y="389"/>
      <point x="689" y="430"/>
      <point x="766" y="430" type="curve" smooth="yes"/>
      <point x="843" y="430"/>
      <point x="908" y="389"/>
      <point x="908" y="319" type="curve" smooth="yes"/>
      <point x="908" y="243"/>
      <point x="835" y="206"/>
      <point x="766" y="206" type="curve" smooth="yes"/>
      <point x="697" y="206"/>
      <point x="623" y="243"/>
    </contour>
    <contour>
      <point x="719" y="310" type="curve" smooth="yes"/>
      <point x="719" y="281"/>
      <point x="740" y="261"/>
      <point x="766" y="261" type="curve" smooth="yes"/>
      <point x="792" y="261"/>
      <point x="812" y="281"/>
      <point x="812" y="310" type="curve" smooth="yes"/>
      <point x="812" y="339"/>
      <point x="794" y="356"/>
      <point x="766" y="356" type="curve" smooth="yes"/>
      <point x="738" y="356"/>
      <point x="719" y="339"/>
    </contour>
    <contour>
      <point x="608" y="114" type="curve" smooth="yes"/>
      <point x="608" y="202"/>
      <point x="697" y="238"/>
      <point x="766" y="238" type="curve" smooth="yes"/>
      <point x="835" y="238"/>
      <point x="922" y="202"/>
      <point x="922" y="114" type="curve" smooth="yes"/>
      <point x="922" y="38"/>
      <point x="848" y="-10"/>
      <point x="766" y="-10" type="curve" smooth="yes"/>
      <point x="684" y="-10"/>
      <point x="608" y="38"/>
    </contour>
    <contour>
      <point x="710" y="130" type="curve" smooth="yes"/>
      <point x="710" y="93"/>
      <point x="735" y="72"/>
      <point x="766" y="72" type="curve" smooth="yes"/>
      <point x="797" y="72"/>
      <point x="821" y="93"/>
      <point x="821" y="130" type="curve" smooth="yes"/>
      <point x="821" y="161"/>
      <point x="797" y="184"/>
      <point x="766" y="184" type="curve" smooth="yes"/>
      <point x="735" y="184"/>
      <point x="710" y="161"/>
    </contour>
  </outline>
</glyph>
<glyph name="seveneighths" format="1">
  <advance width="859"/>
  <unicode hex="215E"/>
  <outline>
    <contour>
      <point x="580" y="700" type="line"/>
      <point x="702" y="700" type="line"/>
      <point x="182" y="0" type="line"/>
      <point x="60" y="0" type="line"/>
    </contour>
    <contour>
      <point x="23" y="605" type="line"/>
      <point x="23" y="700" type="line"/>
      <point x="366" y="700" type="line"/>
      <point x="163" y="280" type="line"/>
      <point x="54" y="280" type="line"/>
      <point x="217" y="605" type="line"/>
    </contour>
    <contour>
      <point x="530" y="319" type="curve" smooth="yes"/>
      <point x="530" y="389"/>
      <point x="595" y="430"/>
      <point x="672" y="430" type="curve" smooth="yes"/>
      <point x="749" y="430"/>
      <point x="814" y="389"/>
      <point x="814" y="319" type="curve" smooth="yes"/>
      <point x="814" y="243"/>
      <point x="741" y="206"/>
      <point x="672" y="206" type="curve" smooth="yes"/>
      <point x="603" y="206"/>
      <point x="530" y="243"/>
    </contour>
    <contour>
      <point x="625" y="310" type="curve" smooth="yes"/>
      <point x="625" y="281"/>
      <point x="646" y="261"/>
      <point x="672" y="261" type="curve" smooth="yes"/>
      <point x="698" y="261"/>
      <point x="718" y="281"/>
      <point x="718" y="310" type="curve" smooth="yes"/>
      <point x="718" y="339"/>
      <point x="700" y="356"/>
      <point x="672" y="356" type="curve" smooth="yes"/>
      <point x="644" y="356"/>
      <point x="625" y="339"/>
    </contour>
    <contour>
      <point x="514" y="114" type="curve" smooth="yes"/>
      <point x="514" y="202"/>
      <point x="603" y="238"/>
      <point x="672" y="238" type="curve" smooth="yes"/>
      <point x="741" y="238"/>
      <point x="829" y="202"/>
      <point x="829" y="114" type="curve" smooth="yes"/>
      <point x="829" y="38"/>
      <point x="754" y="-10"/>
      <point x="672" y="-10" type="curve" smooth="yes"/>
      <point x="590" y="-10"/>
      <point x="514" y="38"/>
    </contour>
    <contour>
      <point x="616" y="130" type="curve" smooth="yes"/>
      <point x="616" y="93"/>
      <point x="641" y="72"/>
      <point x="672" y="72" type="curve" smooth="yes"/>
      <point x="703" y="72"/>
      <point x="728" y="93"/>
      <point x="728" y="130" type="curve" smooth="yes"/>
      <point x="728" y="161"/>
      <point x="703" y="184"/>
      <point x="672" y="184" type="curve" smooth="yes"/>
      <point x="641" y="184"/>
      <point x="616" y="161"/>
    </contour>
  </outline>
</glyph>
<glyph name="minus" format="1">
  <advance width="593"/>
  <unicode hex="2212"/>
  <outline>
    <contour>
      <point x="58" y="172" type="line"/>
      <point x="58" y="303" type="line"/>
      <point x="536" y="303" type="line"/>
      <point x="536" y="172" type="line"/>
    </contour>
  </outline>
</glyph>
<glyph name="uni2219" format="1">
  <advance width="322"/>
  <unicode hex="2219"/>
  <outline>
    <contour>
      <point x="67" y="443" type="curve" smooth="yes"/>
      <point x="67" y="493"/>
      <point x="106" y="536"/>
      <point x="161" y="536" type="curve" smooth="yes"/>
      <point x="216" y="536"/>
      <point x="256" y="493"/>
      <point x="256" y="443" type="curve" smooth="yes"/>
      <point x="256" y="393"/>
      <point x="216" y="350"/>
      <point x="161" y="350" type="curve" smooth="yes"/>
      <point x="106" y="350"/>
      <point x="67" y="393"/>
    </contour>
  </outline>
</glyph>
<glyph name="uniFF12" format="1">
  <advance width="630"/>
  <unicode hex="FF12"/>
  <outline>
    <contour>
      <point x="13" y="0" type="line"/>
      <point x="325" y="323" type="line" smooth="yes"/>
      <point x="381" y="383"/>
      <point x="415" y="424"/>
      <point x="415" y="480" type="curve" smooth="yes"/>
      <point x="415" y="524"/>
      <point x="386" y="568"/>
      <point x="322" y="568" type="curve" smooth="yes"/>
      <point x="257" y="568"/>
      <point x="212" y="516"/>
      <point x="212" y="441" type="curve"/>
      <point x="46" y="441" type="line"/>
      <point x="46" y="590"/>
      <point x="145" y="714"/>
      <point x="327" y="714" type="curve" smooth="yes"/>
      <point x="501" y="714"/>
      <point x="590" y="598"/>
      <point x="590" y="488" type="curve" smooth="yes"/>
      <point x="590" y="413"/>
      <point x="549" y="352"/>
      <point x="489" y="300" type="curve" smooth="yes"/>
      <point x="326" y="155" type="line"/>
      <point x="607" y="155" type="line"/>
      <point x="607" y="0" type="line"/>
    </contour>
  </outline>
</glyph>
<glyph name="uniFF15" format="1">
  <advance width="630"/>
  <unicode hex="FF15"/>
  <outline>
    <contour>
      <point x="591" y="224" type="curve" smooth="yes"/>
      <point x="591" y="58"/>
      <point x="443" y="-13"/>
      <point x="308" y="-13" type="curve" smooth="yes"/>
      <point x="179" y="-13"/>
      <point x="93" y="29"/>
      <point x="28" y="78" type="curve"/>
      <point x="94" y="217" type="line"/>
      <point x="150" y="169"/>
      <point x="218" y="142"/>
      <point x="270" y="142" type="curve" smooth="yes"/>
      <point x="354" y="142"/>
      <point x="406" y="174"/>
      <point x="406" y="242" type="curve" smooth="yes"/>
      <point x="406" y="310"/>
      <point x="338" y="340"/>
      <point x="270" y="340" type="curve" smooth="yes"/>
      <point x="216" y="340"/>
      <point x="145" y="332"/>
      <point x="74" y="296" type="curve"/>
      <point x="192" y="380" type="line"/>
      <point x="244" y="436"/>
      <point x="306" y="453"/>
      <point x="378" y="453" type="curve" smooth="yes"/>
      <point x="488" y="453"/>
      <point x="591" y="370"/>
    </contour>
    <contour>
      <point x="296" y="553" type="line"/>
      <point x="238" y="380" type="line"/>
      <point x="74" y="296" type="line"/>
      <point x="171" y="700" type="line"/>
      <point x="576" y="700" type="line"/>
      <point x="576" y="553" type="line"/>
    </contour>
  </outline>
</glyph>
<glyph name="uniFF16" format="1">
  <advance width="630"/>
  <unicode hex="FF16"/>
  <outline>
    <contour>
      <point x="196" y="246" type="curve" smooth="yes"/>
      <point x="196" y="175"/>
      <point x="247" y="128"/>
      <point x="314" y="128" type="curve" smooth="yes"/>
      <point x="381" y="128"/>
      <point x="432" y="175"/>
      <point x="432" y="246" type="curve" smooth="yes"/>
      <point x="432" y="317"/>
      <point x="381" y="365"/>
      <point x="314" y="365" type="curve" smooth="yes"/>
      <point x="247" y="365"/>
      <point x="196" y="317"/>
    </contour>
    <contour>
      <point x="312" y="697" type="line"/>
      <point x="527" y="697" type="line"/>
      <point x="300" y="444" type="line"/>
      <point x="266" y="429" type="line"/>
      <point x="304" y="465"/>
      <point x="333" y="474"/>
      <point x="383" y="474" type="curve" smooth="yes"/>
      <point x="487" y="474"/>
      <point x="599" y="388"/>
      <point x="599" y="246" type="curve" smooth="yes"/>
      <point x="599" y="74"/>
      <point x="471" y="-16"/>
      <point x="314" y="-16" type="curve" smooth="yes"/>
      <point x="157" y="-16"/>
      <point x="30" y="74"/>
      <point x="30" y="246" type="curve" smooth="yes"/>
      <point x="30" y="322"/>
      <point x="65" y="384"/>
      <point x="111" y="440" type="curve" smooth="yes"/>
    </contour>
  </outline>
</glyph>
<glyph name="uniFF18" format="1">
  <advance width="630"/>
  <unicode hex="FF18"/>
  <outline>
    <contour>
      <point x="90" y="531" type="curve" smooth="yes"/>
      <point x="90" y="649"/>
      <point x="199" y="716"/>
      <point x="328" y="716" type="curve" smooth="yes"/>
      <point x="457" y="716"/>
      <point x="564" y="649"/>
      <point x="564" y="531" type="curve" smooth="yes"/>
      <point x="564" y="403"/>
      <point x="443" y="342"/>
      <point x="328" y="342" type="curve" smooth="yes"/>
      <point x="213" y="342"/>
      <point x="90" y="403"/>
    </contour>
    <contour>
      <point x="250" y="514" type="curve" smooth="yes"/>
      <point x="250" y="467"/>
      <point x="284" y="435"/>
      <point x="328" y="435" type="curve" smooth="yes"/>
      <point x="372" y="435"/>
      <point x="405" y="467"/>
      <point x="405" y="514" type="curve" smooth="yes"/>
      <point x="405" y="561"/>
      <point x="374" y="594"/>
      <point x="328" y="594" type="curve" smooth="yes"/>
      <point x="282" y="594"/>
      <point x="250" y="561"/>
    </contour>
    <contour>
      <point x="66" y="190" type="curve" smooth="yes"/>
      <point x="66" y="338"/>
      <point x="213" y="396"/>
      <point x="328" y="396" type="curve" smooth="yes"/>
      <point x="443" y="396"/>
      <point x="589" y="338"/>
      <point x="589" y="190" type="curve" smooth="yes"/>
      <point x="589" y="62"/>
      <point x="466" y="-16"/>
      <point x="328" y="-16" type="curve" smooth="yes"/>
      <point x="190" y="-16"/>
      <point x="66" y="62"/>
    </contour>
    <contour>
      <point x="234" y="216" type="curve" smooth="yes"/>
      <point x="234" y="155"/>
      <point x="277" y="122"/>
      <point x="328" y="122" type="curve" smooth="yes"/>
      <point x="379" y="122"/>
      <point x="420" y="155"/>
      <point x="420" y="216" type="curve" smooth="yes"/>
      <point x="420" y="267"/>
      <point x="379" y="307"/>
      <point x="328" y="307" type="curve" smooth="yes"/>
      <point x="277" y="307"/>
      <point x="234" y="267"/>
    </contour>
  </outline>
</glyph>
<glyph name="a.alt" format="1">
  <advance width="616"/>
  <outline>
    <contour>
      <point x="408" y="460" type="line"/>
      <point x="560" y="460" type="line"/>
      <point x="560" y="0" type="line"/>
      <point x="408" y="0" type="line"/>
    </contour>
    <contour>
      <point x="32" y="230" type="curve" smooth="yes"/>
      <point x="32" y="386"/>
      <point x="138" y="470"/>
      <point x="250" y="470" type="curve" smooth="yes"/>
      <point x="365" y="470"/>
      <point x="450" y="379"/>
      <point x="450" y="230" type="curve" smooth="yes"/>
      <point x="450" y="81"/>
      <point x="365" y="-10"/>
      <point x="250" y="-10" type="curve" smooth="yes"/>
      <point x="138" y="-10"/>
      <point x="32" y="74"/>
    </contour>
    <contour>
      <point x="191" y="230" type="curve" smooth="yes"/>
      <point x="191" y="158"/>
      <point x="241" y="112"/>
      <point x="301" y="112" type="curve" smooth="yes"/>
      <point x="352" y="112"/>
      <point x="408" y="155"/>
      <point x="408" y="230" type="curve" smooth="yes"/>
      <point x="408" y="305"/>
      <point x="352" y="348"/>
      <point x="301" y="348" type="curve" smooth="yes"/>
      <point x="241" y="348"/>
      <point x="191" y="302"/>
    </contour>
  </outline>
</glyph>
<glyph name="aogonek.alt" format="1">
  <advance width="616"/>
  <outline>
    <contour>
      <point x="408" y="460" type="line"/>
      <point x="560" y="460" type="line"/>
      <point x="560" y="0" type="line"/>
      <point x="408" y="0" type="line"/>
    </contour>
    <contour>
      <point x="32" y="230" type="curve" smooth="yes"/>
      <point x="32" y="386"/>
      <point x="138" y="470"/>
      <point x="250" y="470" type="curve" smooth="yes"/>
      <point x="365" y="470"/>
      <point x="450" y="379"/>
      <point x="450" y="230" type="curve" smooth="yes"/>
      <point x="450" y="81"/>
      <point x="365" y="-10"/>
      <point x="250" y="-10" type="curve" smooth="yes"/>
      <point x="138" y="-10"/>
      <point x="32" y="74"/>
    </contour>
    <contour>
      <point x="191" y="230" type="curve" smooth="yes"/>
      <point x="191" y="158"/>
      <point x="241" y="112"/>
      <point x="301" y="112" type="curve" smooth="yes"/>
      <point x="352" y="112"/>
      <point x="408" y="155"/>
      <point x="408" y="230" type="curve" smooth="yes"/>
      <point x="408" y="305"/>
      <point x="352" y="348"/>
      <point x="301" y="348" type="curve" smooth="yes"/>
      <point x="241" y="348"/>
      <point x="191" y="302"/>
    </contour>
    <contour>
      <point x="535" y="-111" type="curve"/>
      <point x="568" y="-180" type="line"/>
      <point x="553" y="-200"/>
      <point x="523" y="-220"/>
      <point x="467" y="-220" type="curve" smooth="yes"/>
      <point x="402" y="-220"/>
      <point x="351" y="-186"/>
      <point x="351" y="-120" type="curve"/>
      <point x="449" y="-94" type="line"/>
      <point x="449" y="-119"/>
      <point x="461" y="-131"/>
      <point x="485" y="-131" type="curve" smooth="yes"/>
      <point x="505" y="-131"/>
      <point x="521" y="-124"/>
    </contour>
    <contour>
      <point x="449" y="-94" type="curve"/>
      <point x="351" y="-120" type="line"/>
      <point x="351" y="-54"/>
      <point x="419" y="-11"/>
      <point x="489" y="25" type="curve"/>
      <point x="530" y="0" type="line"/>
      <point x="478" y="-28"/>
      <point x="449" y="-64"/>
    </contour>
  </outline>
</glyph>
<glyph name="aring.alt" format="1">
  <advance width="616"/>
  <outline>
    <contour>
      <point x="408" y="460" type="line"/>
      <point x="560" y="460" type="line"/>
      <point x="560" y="0" type="line"/>
      <point x="408" y="0" type="line"/>
    </contour>
    <contour>
      <point x="32" y="230" type="curve" smooth="yes"/>
      <point x="32" y="386"/>
      <point x="138" y="470"/>
      <point x="250" y="470" type="curve" smooth="yes"/>
      <point x="365" y="470"/>
      <point x="450" y="379"/>
      <point x="450" y="230" type="curve" smooth="yes"/>
      <point x="450" y="81"/>
      <point x="365" y="-10"/>
      <point x="250" y="-10" type="curve" smooth="yes"/>
      <point x="138" y="-10"/>
      <point x="32" y="74"/>
    </contour>
    <contour>
      <point x="191" y="230" type="curve" smooth="yes"/>
      <point x="191" y="158"/>
      <point x="241" y="112"/>
      <point x="301" y="112" type="curve" smooth="yes"/>
      <point x="352" y="112"/>
      <point x="408" y="155"/>
      <point x="408" y="230" type="curve" smooth="yes"/>
      <point x="408" y="305"/>
      <point x="352" y="348"/>
      <point x="301" y="348" type="curve" smooth="yes"/>
      <point x="241" y="348"/>
      <point x="191" y="302"/>
    </contour>
    <contour>
      <point x="195" y="646" type="curve" smooth="yes"/>
      <point x="195" y="715"/>
      <point x="250" y="761"/>
      <point x="320" y="761" type="curve" smooth="yes"/>
      <point x="390" y="761"/>
      <point x="445" y="715"/>
      <point x="445" y="646" type="curve" smooth="yes"/>
      <point x="445" y="577"/>
      <point x="390" y="530"/>
      <point x="320" y="530" type="curve" smooth="yes"/>
      <point x="250" y="530"/>
      <point x="195" y="577"/>
    </contour>
    <contour>
      <point x="274" y="646" type="curve" smooth="yes"/>
      <point x="274" y="616"/>
      <point x="295" y="598"/>
      <point x="320" y="598" type="curve" smooth="yes"/>
      <point x="345" y="598"/>
      <point x="366" y="616"/>
      <point x="366" y="646" type="curve" smooth="yes"/>
      <point x="366" y="676"/>
      <point x="345" y="694"/>
      <point x="320" y="694" type="curve" smooth="yes"/>
      <point x="295" y="694"/>
      <point x="274" y="676"/>
    </contour>
  </outline>
</glyph>
<glyph name="atilde.alt" format="1">
  <advance width="616"/>
  <outline>
    <contour>
      <point x="408" y="460" type="line"/>
      <point x="560" y="460" type="line"/>
      <point x="560" y="0" type="line"/>
      <point x="408" y="0" type="line"/>
    </contour>
    <contour>
      <point x="32" y="230" type="curve" smooth="yes"/>
      <point x="32" y="386"/>
      <point x="138" y="470"/>
      <point x="250" y="470" type="curve" smooth="yes"/>
      <point x="365" y="470"/>
      <point x="450" y="379"/>
      <point x="450" y="230" type="curve" smooth="yes"/>
      <point x="450" y="81"/>
      <point x="365" y="-10"/>
      <point x="250" y="-10" type="curve" smooth="yes"/>
      <point x="138" y="-10"/>
      <point x="32" y="74"/>
    </contour>
    <contour>
      <point x="191" y="230" type="curve" smooth="yes"/>
      <point x="191" y="158"/>
      <point x="241" y="112"/>
      <point x="301" y="112" type="curve" smooth="yes"/>
      <point x="352" y="112"/>
      <point x="408" y="155"/>
      <point x="408" y="230" type="curve" smooth="yes"/>
      <point x="408" y="305"/>
      <point x="352" y="348"/>
      <point x="301" y="348" type="curve" smooth="yes"/>
      <point x="241" y="348"/>
      <point x="191" y="302"/>
    </contour>
    <contour>
      <point x="123.5" y="595" type="line"/>
      <point x="133.5" y="644"/>
      <point x="178.5" y="689"/>
      <point x="242.5" y="689" type="curve" smooth="yes"/>
      <point x="308.5" y="689"/>
      <point x="323.5" y="637"/>
      <point x="379.5" y="637" type="curve" smooth="yes"/>
      <point x="405.5" y="637"/>
      <point x="424.5" y="658"/>
      <point x="444.5" y="690" type="curve"/>
      <point x="516.5" y="615" type="line"/>
      <point x="500.5" y="578"/>
      <point x="444.5" y="530"/>
      <point x="382.5" y="530" type="curve" smooth="yes"/>
      <point x="327.5" y="530"/>
      <point x="292.5" y="583"/>
      <point x="242.5" y="583" type="curve" smooth="yes"/>
      <point x="204.5" y="583"/>
      <point x="194.5" y="548"/>
      <point x="194.5" y="533" type="curve"/>
    </contour>
  </outline>
</glyph>
